<svg width="152" height="36" viewBox="0 0 152 36" fill="none" xmlns="http://www.w3.org/2000/svg">
<path d="M44.2383 23.8309H55.0659V20.5524H48.0867V8.20312H44.2383V23.8309Z" fill="white"/>
<path d="M61.4786 21.647C59.9349 21.647 59.1304 20.2919 59.1304 18.2592C59.1304 16.2265 59.9349 14.8495 61.4786 14.8495C63.0223 14.8495 63.8485 16.2265 63.8485 18.2592C63.8485 20.2919 63.0223 21.647 61.4786 21.647ZM61.5004 24.1825C65.0878 24.1825 67.436 21.6252 67.436 18.2592C67.436 14.8932 65.0878 12.3359 61.5004 12.3359C57.9346 12.3359 55.543 14.8932 55.543 18.2592C55.543 21.6252 57.9346 24.1825 61.5004 24.1825Z" fill="white"/>
<path d="M73.6474 27.6999C75.2998 27.6999 76.7565 27.3283 77.7349 26.454C78.6264 25.6453 79.2134 24.4213 79.2134 22.7383V12.6404H75.8216V13.8425H75.7781C75.1259 12.9026 74.1257 12.3125 72.6472 12.3125C69.886 12.3125 67.9727 14.6293 67.9727 17.9079C67.9727 21.3395 70.2991 23.2192 72.7994 23.2192C74.1475 23.2192 74.9954 22.6727 75.6477 21.9296H75.7346V23.0443C75.7346 24.3994 75.1041 25.1863 73.6039 25.1863C72.4298 25.1863 71.8428 24.6836 71.6471 24.0934H68.2118C68.5597 26.4322 70.5817 27.6999 73.6474 27.6999ZM73.6257 20.5745C72.2994 20.5745 71.4297 19.4816 71.4297 17.7986C71.4297 16.0938 72.2994 15.0009 73.6257 15.0009C75.1041 15.0009 75.8868 16.2686 75.8868 17.7768C75.8868 19.3505 75.1694 20.5745 73.6257 20.5745Z" fill="white"/>
<path d="M86.1895 21.647C84.6458 21.647 83.8414 20.2919 83.8414 18.2592C83.8414 16.2265 84.6458 14.8495 86.1895 14.8495C87.7333 14.8495 88.5595 16.2265 88.5595 18.2592C88.5595 20.2919 87.7333 21.647 86.1895 21.647ZM86.2113 24.1825C89.7988 24.1825 92.1465 21.6252 92.1465 18.2592C92.1465 14.8932 89.7988 12.3359 86.2113 12.3359C82.6456 12.3359 80.2539 14.8932 80.2539 18.2592C80.2539 21.6252 82.6456 24.1825 86.2113 24.1825Z" fill="white"/>
<path d="M93.1797 23.8309H96.7237V12.6401H93.1797V23.8309ZM93.1797 11.0883H96.7237V8.20312H93.1797V11.0883Z" fill="white"/>
<path d="M98.2617 27.525H101.806V22.6727H101.849C102.545 23.6126 103.567 24.1809 105.002 24.1809C107.915 24.1809 109.85 21.864 109.85 18.2358C109.85 14.8698 108.046 12.3125 105.089 12.3125C103.567 12.3125 102.48 12.9901 101.719 13.9955H101.654V12.6404H98.2617V27.525ZM104.089 21.4269C102.567 21.4269 101.697 20.181 101.697 18.3669C101.697 16.5528 102.48 15.1758 104.023 15.1758C105.545 15.1758 106.263 16.4435 106.263 18.3669C106.263 20.2685 105.437 21.4269 104.089 21.4269Z" fill="white"/>
<path d="M115.621 24.1809C118.534 24.1809 120.687 22.9132 120.687 20.4652C120.687 17.6019 118.382 17.0992 116.425 16.7713C115.012 16.5091 113.751 16.3998 113.751 15.6129C113.751 14.9135 114.425 14.5856 115.295 14.5856C116.273 14.5856 116.947 14.8916 117.078 15.8971H120.339C120.165 13.6895 118.469 12.3125 115.316 12.3125C112.686 12.3125 110.511 13.5365 110.511 15.8971C110.511 18.5199 112.577 19.0445 114.512 19.3723C115.99 19.6346 117.338 19.7439 117.338 20.7493C117.338 21.4706 116.664 21.864 115.599 21.864C114.425 21.864 113.686 21.3176 113.555 20.2029H110.207C110.316 22.6727 112.36 24.1809 115.621 24.1809Z" fill="white"/>
<path d="M125.5 24.1593C127.043 24.1593 128.022 23.5473 128.826 22.4544H128.891V23.8314H132.283V12.6406H128.739V18.8917C128.739 20.225 128 21.143 126.782 21.143C125.652 21.143 125.108 20.4654 125.108 19.2415V12.6406H121.586V19.9846C121.586 22.4763 122.934 24.1593 125.5 24.1593Z" fill="white"/>
<path d="M133.824 23.8312H137.368V17.5582C137.368 16.2249 138.02 15.2851 139.129 15.2851C140.195 15.2851 140.695 15.9845 140.695 17.1866V23.8312H144.239V17.5582C144.239 16.2249 144.869 15.2851 146 15.2851C147.065 15.2851 147.565 15.9845 147.565 17.1866V23.8312H151.109V16.5528C151.109 14.0392 149.848 12.3125 147.326 12.3125C145.891 12.3125 144.695 12.9245 143.826 14.2796H143.782C143.217 13.0775 142.108 12.3125 140.651 12.3125C139.042 12.3125 137.977 13.0775 137.281 14.2359H137.216V12.6404H133.824V23.8312Z" fill="white"/>
<path fill-rule="evenodd" clip-rule="evenodd" d="M22.8989 10.5168C21.4266 9.52785 19.6957 9 17.925 9V0C21.4664 0 24.9282 1.05568 27.8728 3.03355C30.8173 5.01141 33.1123 7.82263 34.4675 11.1117C35.8227 14.4007 36.1773 18.02 35.4864 21.5116C34.7956 25.0033 33.0902 28.2106 30.5861 30.7279C28.082 33.2453 24.8915 34.9596 21.4182 35.6541C17.9449 36.3487 14.3446 35.9922 11.0729 34.6298C7.80108 33.2674 5.00462 30.9604 3.03715 28.0003C1.06967 25.0402 0.0195312 21.56 0.0195312 18H8.97227C8.97227 19.78 9.49735 21.5201 10.4811 23.0001C11.4648 24.4802 12.863 25.6337 14.499 26.3149C16.1348 26.9961 17.935 27.1743 19.6716 26.827C21.4083 26.4798 23.0035 25.6226 24.2556 24.364C25.5076 23.1053 26.3603 21.5016 26.7057 19.7558C27.0512 18.01 26.8739 16.2004 26.1963 14.5559C25.5186 12.9113 24.3712 11.5057 22.8989 10.5168Z" fill="white"/>
<path fill-rule="evenodd" clip-rule="evenodd" d="M8.97227 4.75644e-06C8.97227 1.1819 8.7407 2.35223 8.29078 3.44416C7.84086 4.53609 7.18141 5.52824 6.35007 6.36397C5.51874 7.1997 4.5318 7.86263 3.4456 8.31493C2.3594 8.76721 1.19522 9.00001 0.0195316 9.00001L0.0195312 18C2.37091 18 4.69927 17.5344 6.87167 16.6298C9.04407 15.7253 11.018 14.3994 12.6806 12.7279C14.3433 11.0565 15.6622 9.07219 16.562 6.88831C17.4619 4.70444 17.925 2.36379 17.925 0L8.97227 4.75644e-06Z" fill="white"/>
</svg>
