<svg width="152" height="36" viewBox="0 0 152 36" fill="none" xmlns="http://www.w3.org/2000/svg">
<path d="M44.8242 23.8309H55.6519V20.5524H48.6726V8.20312H44.8242V23.8309Z" fill="white"/>
<path d="M62.0685 21.647C60.5248 21.647 59.7203 20.2919 59.7203 18.2592C59.7203 16.2265 60.5248 14.8495 62.0685 14.8495C63.6122 14.8495 64.4384 16.2265 64.4384 18.2592C64.4384 20.2919 63.6122 21.647 62.0685 21.647ZM62.0902 24.1825C65.6777 24.1825 68.0258 21.6252 68.0258 18.2592C68.0258 14.8932 65.6777 12.3359 62.0902 12.3359C58.5245 12.3359 56.1328 14.8932 56.1328 18.2592C56.1328 21.6252 58.5245 24.1825 62.0902 24.1825Z" fill="white"/>
<path d="M74.2333 27.6999C75.8857 27.6999 77.3425 27.3283 78.3209 26.454C79.2123 25.6453 79.7994 24.4213 79.7994 22.7383V12.6404H76.4076V13.8425H76.3641C75.7118 12.9026 74.7117 12.3125 73.2332 12.3125C70.4719 12.3125 68.5586 14.6293 68.5586 17.9079C68.5586 21.3395 70.885 23.2192 73.3854 23.2192C74.7334 23.2192 75.5813 22.6727 76.2336 21.9296H76.3206V23.0443C76.3206 24.3994 75.6901 25.1863 74.1898 25.1863C73.0158 25.1863 72.4287 24.6836 72.233 24.0934H68.7978C69.1456 26.4322 71.1677 27.6999 74.2333 27.6999ZM74.2116 20.5745C72.8853 20.5745 72.0156 19.4816 72.0156 17.7986C72.0156 16.0938 72.8853 15.0009 74.2116 15.0009C75.6901 15.0009 76.4728 16.2686 76.4728 17.7768C76.4728 19.3505 75.7553 20.5745 74.2116 20.5745Z" fill="white"/>
<path d="M86.7755 21.647C85.2318 21.647 84.4273 20.2919 84.4273 18.2592C84.4273 16.2265 85.2318 14.8495 86.7755 14.8495C88.3192 14.8495 89.1454 16.2265 89.1454 18.2592C89.1454 20.2919 88.3192 21.647 86.7755 21.647ZM86.7972 24.1825C90.3847 24.1825 92.7324 21.6252 92.7324 18.2592C92.7324 14.8932 90.3847 12.3359 86.7972 12.3359C83.2315 12.3359 80.8398 14.8932 80.8398 18.2592C80.8398 21.6252 83.2315 24.1825 86.7972 24.1825Z" fill="white"/>
<path d="M93.7656 23.8309H97.3096V12.6401H93.7656V23.8309ZM93.7656 11.0883H97.3096V8.20312H93.7656V11.0883Z" fill="white"/>
<path d="M98.8477 27.525H102.392V22.6727H102.435C103.131 23.6126 104.153 24.1809 105.588 24.1809C108.501 24.1809 110.436 21.864 110.436 18.2358C110.436 14.8698 108.632 12.3125 105.675 12.3125C104.153 12.3125 103.066 12.9901 102.305 13.9955H102.239V12.6404H98.8477V27.525ZM104.675 21.4269C103.153 21.4269 102.283 20.181 102.283 18.3669C102.283 16.5528 103.066 15.1758 104.609 15.1758C106.131 15.1758 106.849 16.4435 106.849 18.3669C106.849 20.2685 106.023 21.4269 104.675 21.4269Z" fill="white"/>
<path d="M116.207 24.1809C119.12 24.1809 121.273 22.9132 121.273 20.4652C121.273 17.6019 118.968 17.0992 117.011 16.7713C115.598 16.5091 114.337 16.3998 114.337 15.6129C114.337 14.9135 115.011 14.5856 115.881 14.5856C116.859 14.5856 117.533 14.8916 117.664 15.8971H120.925C120.751 13.6895 119.055 12.3125 115.902 12.3125C113.272 12.3125 111.097 13.5365 111.097 15.8971C111.097 18.5199 113.163 19.0445 115.098 19.3723C116.576 19.6346 117.924 19.7439 117.924 20.7493C117.924 21.4706 117.25 21.864 116.185 21.864C115.011 21.864 114.272 21.3176 114.141 20.2029H110.793C110.902 22.6727 112.945 24.1809 116.207 24.1809Z" fill="white"/>
<path d="M126.085 24.1593C127.629 24.1593 128.608 23.5473 129.412 22.4544H129.477V23.8314H132.869V12.6406H129.325V18.8917C129.325 20.225 128.586 21.143 127.368 21.143C126.238 21.143 125.694 20.4654 125.694 19.2415V12.6406H122.172V19.9846C122.172 22.4763 123.52 24.1593 126.085 24.1593Z" fill="white"/>
<path d="M134.41 23.8312H137.954V17.5582C137.954 16.2249 138.606 15.2851 139.715 15.2851C140.781 15.2851 141.281 15.9845 141.281 17.1866V23.8312H144.825V17.5582C144.825 16.2249 145.455 15.2851 146.586 15.2851C147.651 15.2851 148.151 15.9845 148.151 17.1866V23.8312H151.695V16.5528C151.695 14.0392 150.434 12.3125 147.912 12.3125C146.477 12.3125 145.281 12.9245 144.412 14.2796H144.368C143.803 13.0775 142.694 12.3125 141.237 12.3125C139.628 12.3125 138.563 13.0775 137.867 14.2359H137.802V12.6404H134.41V23.8312Z" fill="white"/>
<path fill-rule="evenodd" clip-rule="evenodd" d="M8.42657 3.23808C7.14574 4.13841 5.98752 5.20288 4.98208 6.40116C9.09077 6.0177 14.3107 6.64384 20.371 9.69001C26.8426 12.9428 32.0538 13.0528 35.6805 12.3495C35.3514 11.3479 34.9371 10.3853 34.4464 9.47014C30.2948 9.91033 24.9723 9.32767 18.7695 6.20998C14.8307 4.23016 11.3586 3.41461 8.42657 3.23808ZM32.0212 5.99998C28.7426 2.3175 23.9781 0 18.675 0C17.1177 0 15.6066 0.199896 14.1661 0.575532C16.1171 1.11068 18.1897 1.89359 20.371 2.99004C24.9124 5.27268 28.8331 6.00764 32.0212 5.99998ZM36.4559 15.8653C32.0745 16.735 26.0241 16.5564 18.7695 12.9099C11.9873 9.50092 6.5892 9.54385 2.94854 10.3572C2.76062 10.3991 2.57713 10.4432 2.39806 10.4891C1.92141 11.5312 1.54093 12.6271 1.26793 13.765C1.55951 13.6867 1.86081 13.6123 2.17167 13.5428C6.58843 12.5562 12.8289 12.599 20.371 16.39C27.1533 19.799 32.5514 19.7561 36.1921 18.9427C36.3168 18.9149 36.4397 18.8861 36.5606 18.8564C36.5739 18.5727 36.5805 18.2871 36.5805 18C36.5805 17.2777 36.5382 16.5654 36.4559 15.8653ZM35.976 22.6551C31.637 23.4176 25.7629 23.125 18.7695 19.6099C11.9873 16.2009 6.5892 16.2438 2.94854 17.0571C2.14042 17.2376 1.41345 17.4575 0.772154 17.6896C0.770406 17.7928 0.769531 17.8963 0.769531 18C0.769531 27.9411 8.78608 36 18.675 36C26.9626 36 33.9352 30.3398 35.976 22.6551Z" fill="white"/>
</svg>
