<svg width="150" height="36" viewBox="0 0 150 36" fill="none" xmlns="http://www.w3.org/2000/svg">
<path d="M44.1562 23.8109H54.8564V20.5709H47.9593V8.36719H44.1562V23.8109Z" fill="white"/>
<path d="M61.1977 21.6545C59.6722 21.6545 58.8772 20.3154 58.8772 18.3066C58.8772 16.2978 59.6722 14.9371 61.1977 14.9371C62.7233 14.9371 63.5397 16.2978 63.5397 18.3066C63.5397 20.3154 62.7233 21.6545 61.1977 21.6545ZM61.2192 24.1601C64.7645 24.1601 67.085 21.6329 67.085 18.3066C67.085 14.9803 64.7645 12.4531 61.2192 12.4531C57.6955 12.4531 55.332 14.9803 55.332 18.3066C55.332 21.6329 57.6955 24.1601 61.2192 24.1601Z" fill="white"/>
<path d="M73.2212 27.6358C74.8541 27.6358 76.2937 27.2686 77.2606 26.4046C78.1415 25.6054 78.7216 24.3959 78.7216 22.7327V12.7537H75.3698V13.9417H75.3268C74.6822 13.0129 73.6939 12.4297 72.2328 12.4297C69.5041 12.4297 67.6133 14.7192 67.6133 17.9592C67.6133 21.3503 69.9123 23.2079 72.3832 23.2079C73.7154 23.2079 74.5533 22.6679 75.1979 21.9335H75.2838V23.0351C75.2838 24.3743 74.6607 25.1518 73.1782 25.1518C72.0179 25.1518 71.4378 24.655 71.2444 24.0719H67.8496C68.1934 26.383 70.1916 27.6358 73.2212 27.6358ZM73.1997 20.5943C71.889 20.5943 71.0296 19.5143 71.0296 17.8512C71.0296 16.1664 71.889 15.0864 73.1997 15.0864C74.6607 15.0864 75.4342 16.3392 75.4342 17.8296C75.4342 19.3848 74.7252 20.5943 73.1997 20.5943Z" fill="white"/>
<path d="M85.6118 21.6545C84.0863 21.6545 83.2913 20.3154 83.2913 18.3066C83.2913 16.2978 84.0863 14.9371 85.6118 14.9371C87.1373 14.9371 87.9538 16.2978 87.9538 18.3066C87.9538 20.3154 87.1373 21.6545 85.6118 21.6545ZM85.6333 24.1601C89.1785 24.1601 91.4986 21.6329 91.4986 18.3066C91.4986 14.9803 89.1785 12.4531 85.6333 12.4531C82.1096 12.4531 79.7461 14.9803 79.7461 18.3066C79.7461 21.6329 82.1096 24.1601 85.6333 24.1601Z" fill="white"/>
<path d="M92.5195 23.8109H96.0218V12.7519H92.5195V23.8109ZM92.5195 11.2183H96.0218V8.36719H92.5195V11.2183Z" fill="white"/>
<path d="M97.543 27.463H101.045V22.6679H101.088C101.776 23.5967 102.786 24.1583 104.204 24.1583C107.083 24.1583 108.995 21.8687 108.995 18.2832C108.995 14.9568 107.212 12.4297 104.29 12.4297C102.786 12.4297 101.711 13.0993 100.959 14.0929H100.895V12.7537H97.543V27.463ZM103.301 21.4367C101.797 21.4367 100.938 20.2055 100.938 18.4128C100.938 16.62 101.711 15.2592 103.237 15.2592C104.741 15.2592 105.45 16.512 105.45 18.4128C105.45 20.2919 104.633 21.4367 103.301 21.4367Z" fill="white"/>
<path d="M114.698 24.1583C117.577 24.1583 119.704 22.9055 119.704 20.4863C119.704 17.6568 117.426 17.16 115.493 16.836C114.096 16.5768 112.85 16.4688 112.85 15.6912C112.85 15 113.516 14.676 114.375 14.676C115.342 14.676 116.008 14.9784 116.137 15.972H119.36C119.188 13.7905 117.512 12.4297 114.397 12.4297C111.797 12.4297 109.648 13.6393 109.648 15.972C109.648 18.564 111.69 19.0824 113.602 19.4064C115.063 19.6655 116.395 19.7735 116.395 20.7671C116.395 21.4799 115.729 21.8687 114.676 21.8687C113.516 21.8687 112.785 21.3287 112.657 20.2271H109.348C109.455 22.6679 111.475 24.1583 114.698 24.1583Z" fill="white"/>
<path d="M124.461 24.133C125.987 24.133 126.954 23.5282 127.749 22.4482H127.813V23.809H131.165V12.75H127.663V18.9275C127.663 20.2451 126.932 21.1522 125.729 21.1522C124.612 21.1522 124.075 20.4826 124.075 19.2731V12.75H120.594V20.0075C120.594 22.4698 121.926 24.133 124.461 24.133Z" fill="white"/>
<path d="M132.688 23.8127H136.19V17.6136C136.19 16.296 136.834 15.3672 137.93 15.3672C138.983 15.3672 139.477 16.0584 139.477 17.2464V23.8127H142.979V17.6136C142.979 16.296 143.602 15.3672 144.72 15.3672C145.773 15.3672 146.267 16.0584 146.267 17.2464V23.8127H149.769V16.62C149.769 14.1361 148.523 12.4297 146.03 12.4297C144.612 12.4297 143.431 13.0345 142.571 14.3736H142.528C141.97 13.1857 140.874 12.4297 139.434 12.4297C137.844 12.4297 136.791 13.1857 136.104 14.3305H136.039V12.7537H132.688V23.8127Z" fill="white"/>
<path d="M22.7885 0.948454L19.2674 0L16.3002 11.1324L13.6213 1.08199L10.1002 2.03045L12.9945 12.8892L5.78535 5.64197L3.20774 8.23319L11.1153 16.1826L1.26769 13.5299L0.324219 17.0696L11.084 19.9679C10.9608 19.4337 10.8956 18.8772 10.8956 18.3053C10.8956 14.2576 14.1597 10.9762 18.1862 10.9762C22.2127 10.9762 25.4768 14.2576 25.4768 18.3053C25.4768 18.8735 25.4125 19.4266 25.2908 19.9576L35.0694 22.5916L36.0128 19.052L25.2103 16.1421L35.0586 13.4894L34.1151 9.94973L23.313 12.8594L30.5221 5.61222L27.9445 3.021L20.1466 10.8601L22.7885 0.948454Z" fill="white"/>
<path d="M25.2785 20C24.9767 21.283 24.3393 22.4356 23.4648 23.3591L30.549 30.4807L33.1266 27.8895L25.2785 20Z" fill="white"/>
<path d="M23.3945 23.4375C22.5094 24.3462 21.391 25.0243 20.1367 25.3738L22.7145 35.045L26.2356 34.0965L23.3945 23.4375Z" fill="white"/>
<path d="M20.0053 25.4083C19.4234 25.5587 18.8134 25.6386 18.1849 25.6386C17.5115 25.6386 16.8594 25.5468 16.2403 25.375L13.6602 35.055L17.1812 36.0034L20.0053 25.4083Z" fill="white"/>
<path d="M16.1147 25.3399C14.8796 24.9731 13.7811 24.2863 12.9141 23.375L5.8125 30.5141L8.39011 33.1053L16.1147 25.3399Z" fill="white"/>
<path d="M12.8561 23.3097C12.004 22.3926 11.3833 21.2554 11.0879 19.9922L1.27734 22.6348L2.22081 26.1744L12.8561 23.3097Z" fill="white"/>
</svg>
