<svg width="153" height="36" viewBox="0 0 153 36" fill="none" xmlns="http://www.w3.org/2000/svg">
<path d="M45.1484 23.8778H55.9761V20.5992H48.9968V8.25H45.1484V23.8778Z" fill="white"/>
<path d="M62.3888 21.6939C60.8451 21.6939 60.0406 20.3388 60.0406 18.3061C60.0406 16.2734 60.8451 14.8964 62.3888 14.8964C63.9325 14.8964 64.7587 16.2734 64.7587 18.3061C64.7587 20.3388 63.9325 21.6939 62.3888 21.6939ZM62.4105 24.2293C65.998 24.2293 68.3462 21.6721 68.3462 18.3061C68.3462 14.9401 65.998 12.3828 62.4105 12.3828C58.8448 12.3828 56.4531 14.9401 56.4531 18.3061C56.4531 21.6721 58.8448 24.2293 62.4105 24.2293Z" fill="white"/>
<path d="M74.5575 27.7467C76.21 27.7467 77.6667 27.3752 78.6451 26.5009C79.5365 25.6922 80.1236 24.4682 80.1236 22.7852V12.6872H76.7318V13.8894H76.6883C76.036 12.9495 75.0359 12.3594 73.5574 12.3594C70.7961 12.3594 68.8828 14.6762 68.8828 17.9548C68.8828 21.3863 71.2092 23.266 73.7096 23.266C75.0576 23.266 75.9056 22.7196 76.5578 21.9765H76.6448V23.0912C76.6448 24.4463 76.0143 25.2332 74.5141 25.2332C73.34 25.2332 72.7529 24.7305 72.5573 24.1403H69.122C69.4699 26.479 71.4919 27.7467 74.5575 27.7467ZM74.5358 20.6213C73.2095 20.6213 72.3398 19.5285 72.3398 17.8455C72.3398 16.1406 73.2095 15.0478 74.5358 15.0478C76.0143 15.0478 76.797 16.3155 76.797 17.8236C76.797 19.3973 76.0795 20.6213 74.5358 20.6213Z" fill="white"/>
<path d="M87.0997 21.6939C85.556 21.6939 84.7515 20.3388 84.7515 18.3061C84.7515 16.2734 85.556 14.8964 87.0997 14.8964C88.6434 14.8964 89.4696 16.2734 89.4696 18.3061C89.4696 20.3388 88.6434 21.6939 87.0997 21.6939ZM87.1214 24.2293C90.7089 24.2293 93.0566 21.6721 93.0566 18.3061C93.0566 14.9401 90.7089 12.3828 87.1214 12.3828C83.5557 12.3828 81.1641 14.9401 81.1641 18.3061C81.1641 21.6721 83.5557 24.2293 87.1214 24.2293Z" fill="white"/>
<path d="M94.0898 23.8778H97.6338V12.687H94.0898V23.8778ZM94.0898 11.1351H97.6338V8.25H94.0898V11.1351Z" fill="white"/>
<path d="M99.1719 27.5719H102.716V22.7196H102.759C103.455 23.6595 104.477 24.2278 105.912 24.2278C108.825 24.2278 110.761 21.9109 110.761 18.2826C110.761 14.9166 108.956 12.3594 105.999 12.3594C104.477 12.3594 103.39 13.0369 102.629 14.0424H102.564V12.6872H99.1719V27.5719ZM104.999 21.4738C103.477 21.4738 102.607 20.2279 102.607 18.4138C102.607 16.5996 103.39 15.2226 104.934 15.2226C106.456 15.2226 107.173 16.4904 107.173 18.4138C107.173 20.3153 106.347 21.4738 104.999 21.4738Z" fill="white"/>
<path d="M116.531 24.2278C119.444 24.2278 121.597 22.96 121.597 20.5121C121.597 17.6488 119.292 17.1461 117.335 16.8182C115.922 16.5559 114.661 16.4466 114.661 15.6598C114.661 14.9604 115.335 14.6325 116.205 14.6325C117.183 14.6325 117.857 14.9385 117.988 15.9439H121.249C121.075 13.7364 119.379 12.3594 116.227 12.3594C113.596 12.3594 111.422 13.5834 111.422 15.9439C111.422 18.5668 113.487 19.0913 115.422 19.4192C116.901 19.6815 118.249 19.7908 118.249 20.7962C118.249 21.5175 117.575 21.9109 116.509 21.9109C115.335 21.9109 114.596 21.3645 114.465 20.2498H111.117C111.226 22.7196 113.27 24.2278 116.531 24.2278Z" fill="white"/>
<path d="M126.41 24.2062C127.953 24.2062 128.932 23.5942 129.736 22.5013H129.801V23.8783H133.193V12.6875H129.649V18.9386C129.649 20.2719 128.91 21.1899 127.692 21.1899C126.562 21.1899 126.018 20.5123 126.018 19.2883V12.6875H122.496V20.0315C122.496 22.5232 123.844 24.2062 126.41 24.2062Z" fill="white"/>
<path d="M134.734 23.878H138.278V17.6051C138.278 16.2718 138.931 15.3319 140.039 15.3319C141.105 15.3319 141.605 16.0314 141.605 17.2335V23.878H145.149V17.6051C145.149 16.2718 145.779 15.3319 146.91 15.3319C147.975 15.3319 148.475 16.0314 148.475 17.2335V23.878H152.019V16.5996C152.019 14.0861 150.758 12.3594 148.236 12.3594C146.801 12.3594 145.606 12.9714 144.736 14.3265H144.692C144.127 13.1244 143.018 12.3594 141.561 12.3594C139.953 12.3594 138.887 13.1244 138.191 14.2828H138.126V12.6872H134.734V23.878Z" fill="white"/>
<path fill-rule="evenodd" clip-rule="evenodd" d="M18.6008 36C28.4898 36 36.5063 27.9411 36.5063 18C36.5063 8.05888 28.4898 0 18.6008 0C8.71186 0 0.695312 8.05888 0.695312 18C0.695312 27.9411 8.71186 36 18.6008 36ZM24.1867 8.38516C24.4586 7.41425 23.5213 6.84012 22.6654 7.45317L10.7162 16.0106C9.78792 16.6755 9.93394 18 10.9356 18H14.0821V17.9755H20.2146L15.2178 19.7479L13.0149 27.6149C12.743 28.5858 13.6802 29.1599 14.5363 28.5468L26.4854 19.9894C27.4137 19.3246 27.2676 18 26.2661 18H21.4944L24.1867 8.38516Z" fill="white"/>
</svg>
