<svg width="30" height="30" viewBox="0 0 30 30" fill="none" xmlns="http://www.w3.org/2000/svg">
<path d="M22.8012 3.30469H7.20119C6.84154 3.31456 6.48926 3.40894 6.17284 3.58018C5.85642 3.75142 5.58474 3.99472 5.37976 4.2904L1.47976 9.6904C1.19017 10.0996 1.04554 10.5939 1.06884 11.0946C1.09213 11.5954 1.28201 12.0741 1.60834 12.4547L13.3083 25.9333C13.5086 26.1914 13.7653 26.4002 14.0587 26.5439C14.3521 26.6876 14.6745 26.7623 15.0012 26.7623C15.3279 26.7623 15.6503 26.6876 15.9437 26.5439C16.2371 26.4002 16.4937 26.1914 16.694 25.9333L28.394 12.4547C28.7204 12.0741 28.9103 11.5954 28.9335 11.0946C28.9568 10.5939 28.8122 10.0996 28.5226 9.6904L24.6226 4.2904C24.4176 3.99472 24.146 3.75142 23.8295 3.58018C23.5131 3.40894 23.1608 3.31456 22.8012 3.30469V3.30469Z" stroke="#FF6B35" stroke-width="1.5" stroke-linecap="round" stroke-linejoin="round"/>
<path d="M13.8887 3.28125L8.66016 11.3812L15.003 26.7027" stroke="#FF6B35" stroke-width="1.5" stroke-linecap="round" stroke-linejoin="round"/>
<path d="M16.1786 3.28125L21.3857 11.3812L15 26.7027" stroke="#FF6B35" stroke-width="1.5" stroke-linecap="round" stroke-linejoin="round"/>
<path d="M1.11719 11.3828H28.8886" stroke="#FF6B35" stroke-width="1.5" stroke-linecap="round" stroke-linejoin="round"/>
</svg>
