<svg width="30" height="30" viewBox="0 0 30 30" fill="none" xmlns="http://www.w3.org/2000/svg">
<path d="M15 21.4688V23.633" stroke="#FF6B35" stroke-width="1.5" stroke-linecap="round" stroke-linejoin="round"/>
<path d="M15 10.7344V12.7487" stroke="#FF6B35" stroke-width="1.5" stroke-linecap="round" stroke-linejoin="round"/>
<path d="M15.0017 28.9078C22.5017 28.9078 27.8588 26.2507 27.8588 20.3364C27.8588 13.9078 24.6445 9.6221 18.216 6.40781L20.7445 3.15067C20.873 2.93696 20.9427 2.6931 20.9465 2.44378C20.9503 2.19447 20.8882 1.94857 20.7664 1.73102C20.6445 1.51347 20.4673 1.33199 20.2528 1.20498C20.0382 1.07798 19.7939 1.00995 19.5445 1.00781H10.4588C10.2095 1.00995 9.96515 1.07798 9.75058 1.20498C9.53601 1.33199 9.35883 1.51347 9.237 1.73102C9.11517 1.94857 9.05302 2.19447 9.05685 2.44378C9.06068 2.6931 9.13036 2.93696 9.25882 3.15067L11.7874 6.42924C5.35882 9.66496 2.14453 13.9507 2.14453 20.3792C2.14453 26.2507 7.50167 28.9078 15.0017 28.9078Z" stroke="#FF6B35" stroke-width="1.5" stroke-linecap="round" stroke-linejoin="round"/>
<path d="M12.8603 20.4871C13.1217 20.7975 13.4508 21.0439 13.8223 21.2073C14.1937 21.3707 14.5977 21.4469 15.0031 21.43C15.6229 21.4722 16.2348 21.2726 16.7104 20.8729C17.1859 20.4733 17.488 19.9049 17.5531 19.2871C17.488 18.6694 17.1859 18.101 16.7104 17.7013C16.2348 17.3017 15.6229 17.102 15.0031 17.1443C14.3834 17.1865 13.7714 16.9869 13.2959 16.5872C12.8203 16.1876 12.5182 15.6192 12.4531 15.0014C12.513 14.3815 12.8136 13.8098 13.2904 13.4092C13.7672 13.0085 14.3822 12.8108 15.0031 12.8586C15.4015 12.8342 15.8002 12.8984 16.1708 13.0466C16.5413 13.1949 16.8743 13.4234 17.146 13.7157" stroke="#FF6B35" stroke-width="1.5" stroke-linecap="round" stroke-linejoin="round"/>
</svg>
