<svg width="50" height="50" viewBox="0 0 50 50" fill="none" xmlns="http://www.w3.org/2000/svg">
<path d="M18.6801 8.03906L20.2158 4.07478C20.4748 3.40358 20.9305 2.82624 21.5232 2.41839C22.1158 2.01054 22.8178 1.79119 23.5373 1.78906H26.4658C27.1853 1.79119 27.8873 2.01054 28.48 2.41839C29.0726 2.82624 29.5283 3.40358 29.7873 4.07478L31.323 8.03906L36.5373 11.0391L40.7516 10.3962C41.4533 10.301 42.1675 10.4165 42.8034 10.7281C43.4393 11.0397 43.9683 11.5333 44.323 12.1462L45.7516 14.6462C46.1176 15.2689 46.2863 15.9879 46.2353 16.7084C46.1843 17.4289 45.916 18.117 45.4658 18.6819L42.8587 22.0033V28.0033L45.5373 31.3248C45.9874 31.8897 46.2557 32.5778 46.3067 33.2983C46.3577 34.0188 46.1891 34.7378 45.823 35.3605L44.3944 37.8605C44.0397 38.4734 43.5108 38.967 42.8748 39.2786C42.2389 39.5902 41.5247 39.7057 40.823 39.6105L36.6087 38.9676L31.3944 41.9676L29.8587 45.9319C29.5997 46.6031 29.144 47.1805 28.5514 47.5883C27.9587 47.9962 27.2567 48.2155 26.5373 48.2176H23.5373C22.8178 48.2155 22.1158 47.9962 21.5232 47.5883C20.9305 47.1805 20.4748 46.6031 20.2158 45.9319L18.6801 41.9676L13.4658 38.9676L9.25156 39.6105C8.54984 39.7057 7.83563 39.5902 7.19971 39.2786C6.56379 38.967 6.03486 38.4734 5.68013 37.8605L4.25156 35.3605C3.8855 34.7378 3.71684 34.0188 3.76785 33.2983C3.81886 32.5778 4.08713 31.8897 4.53728 31.3248L7.14442 28.0033V22.0033L4.46585 18.6819C4.01571 18.117 3.74743 17.4289 3.69642 16.7084C3.64541 15.9879 3.81407 15.2689 4.18013 14.6462L5.60871 12.1462C5.96343 11.5333 6.49236 11.0397 7.12828 10.7281C7.76421 10.4165 8.47841 10.301 9.18013 10.3962L13.3944 11.0391L18.6801 8.03906ZM17.8587 25.0033C17.8587 26.4161 18.2776 27.7971 19.0625 28.9717C19.8474 30.1463 20.9629 31.0619 22.2681 31.6025C23.5733 32.1431 25.0095 32.2846 26.3951 32.009C27.7806 31.7333 29.0534 31.0531 30.0523 30.0541C31.0513 29.0552 31.7316 27.7824 32.0072 26.3969C32.2828 25.0113 32.1413 23.5751 31.6007 22.2699C31.0601 20.9647 30.1446 19.8491 28.9699 19.0643C27.7953 18.2794 26.4143 17.8605 25.0016 17.8605C23.1072 17.8605 21.2903 18.613 19.9508 19.9526C18.6113 21.2921 17.8587 23.1089 17.8587 25.0033V25.0033Z" stroke="#FF6B35" stroke-width="1.5" stroke-linecap="round" stroke-linejoin="round"/>
</svg>
