<svg width="30" height="30" viewBox="0 0 30 30" fill="none" xmlns="http://www.w3.org/2000/svg">
<g clip-path="url(#clip0_305_2163)">
<path d="M5.74121 2.48438C6.2913 2.48438 6.8426 2.71101 7.33496 3.19824L7.35449 3.21582C7.74661 3.57778 8.13062 3.96686 8.50586 4.35449V4.35547C8.70543 4.56834 8.91666 4.77995 9.11133 4.97461L10.8398 6.70312C11.3879 7.25119 11.6181 7.83091 11.6182 8.36328C11.6182 8.89576 11.388 9.47621 10.8398 10.0244C10.7486 10.1157 10.6575 10.2082 10.5693 10.2979C10.4803 10.3884 10.3945 10.4766 10.3086 10.5625L10.3047 10.5654C9.83079 11.0457 9.36497 11.5236 8.86328 11.9824L8.46289 12.3496L8.68652 12.8447C9.10481 13.7704 9.67355 14.6657 10.4912 15.6992L10.498 15.707C12.1744 17.7667 13.9365 19.3753 15.8887 20.6152L15.8945 20.6191C16.1096 20.7526 16.3541 20.8739 16.5713 20.9824V20.9834C16.7446 21.0735 16.8896 21.1457 17.0488 21.2314L17.54 21.4961L17.9346 21.1025L19.9346 19.1074H19.9355C20.4583 18.5847 21.0228 18.3516 21.5713 18.3516C22.1229 18.3517 22.6757 18.588 23.1699 19.1025L23.1797 19.1123L26.6562 22.6016L26.6592 22.6045C27.177 23.1171 27.412 23.6857 27.4121 24.2432C27.4121 24.799 27.1793 25.38 26.665 25.915L26.6641 25.916C26.4031 26.1892 26.1333 26.4524 25.8652 26.708L25.8613 26.7119C25.4735 27.0875 25.0582 27.4815 24.6963 27.9199L24.6895 27.9268C24.6871 27.9295 24.6851 27.9326 24.6826 27.9355C24.681 27.9374 24.6794 27.9394 24.6777 27.9414C23.8662 28.8116 22.8478 29.2489 21.5967 29.249L21.2334 29.2373C19.2148 29.1053 17.3819 28.3425 15.9463 27.6621C12.467 25.9793 9.39275 23.6354 6.79297 20.6875L6.27832 20.0898C4.03751 17.3956 2.5543 14.9041 1.56348 12.2314C1.15454 11.1285 0.66007 9.53623 0.796875 7.85938C0.882755 6.88908 1.2682 6.06579 1.9541 5.37988L1.95605 5.37793L4.1084 3.20508C4.11007 3.20341 4.11217 3.20326 4.11328 3.20215L4.11426 3.2002C4.62649 2.71093 5.19136 2.48451 5.74121 2.48438ZM5.75391 2.69434C5.1782 2.69448 4.67429 2.97495 4.27832 3.34668L4.26953 3.35449L4.26172 3.36328L2.10254 5.52246C1.45165 6.17339 1.09006 6.95275 1.01172 7.86914V7.87207C0.904908 9.17563 1.15298 10.5178 1.76465 12.1562V12.1572C2.75589 14.8355 4.24869 17.3143 6.4502 19.9678L6.45215 19.9697C9.13381 23.1708 12.3647 25.7013 16.0459 27.4834L16.0488 27.4844C17.3758 28.119 19.2313 28.9068 21.2617 29.0371V29.0381C21.3859 29.0464 21.5126 29.0459 21.6025 29.0459C22.7888 29.0459 23.7439 28.6436 24.5312 27.8018L24.5547 27.7744C24.9208 27.3433 25.3154 26.9539 25.7227 26.5654L25.7295 26.5596C25.9156 26.3778 26.1046 26.1923 26.2939 26H26.2969L26.5186 25.7705C26.9209 25.3524 27.2124 24.8409 27.2109 24.248C27.2095 23.6516 26.9118 23.1441 26.499 22.7354L23 19.2363C22.741 18.9603 22.2417 18.5548 21.5586 18.5547C20.8487 18.5547 20.3212 19.0001 20.0723 19.249L17.9062 21.415C17.8117 21.5095 17.6736 21.6317 17.4746 21.6318C17.3997 21.6318 17.3148 21.616 17.1963 21.5586C17.1901 21.5547 17.1822 21.5499 17.1738 21.5449C17.1656 21.5401 17.1546 21.5349 17.1426 21.5283C16.9299 21.3984 16.6923 21.2788 16.4805 21.1729C16.2228 21.044 15.9901 20.9272 15.7676 20.7861H15.7666C13.8128 19.5506 12.0293 17.9304 10.3252 15.8311L10.3096 15.8115C9.39261 14.6447 8.80712 13.6905 8.39453 12.6982L8.38477 12.666C8.34152 12.5265 8.32588 12.4267 8.33594 12.3398C8.34395 12.2708 8.37298 12.1553 8.53223 11.9961L8.5459 11.9814C9.11091 11.4741 9.62833 10.9576 10.1592 10.4141L10.1582 10.4131C10.3425 10.2345 10.5324 10.0409 10.6982 9.875C11.1049 9.46822 11.4209 8.96526 11.4209 8.36328C11.4208 7.76129 11.105 7.25832 10.6982 6.85156L8.96875 5.12305C8.86798 5.01921 8.76736 4.91733 8.66992 4.81836C8.56909 4.71594 8.47165 4.61634 8.37598 4.51758C7.9945 4.1236 7.62215 3.74477 7.22852 3.37598C7.2222 3.36966 7.21533 3.36279 7.20898 3.35645C6.95964 3.10717 6.45354 2.69434 5.75391 2.69434ZM26.3896 24.6299C26.46 24.6768 26.5273 24.7386 26.584 24.8184C26.69 24.9675 26.7227 25.1271 26.7227 25.2529C26.7226 25.4811 26.6216 25.6386 26.5703 25.7061C26.556 25.7249 26.5374 25.7395 26.5225 25.7559L25.9863 25.2393C26.1807 25.0353 26.3148 24.8323 26.3896 24.6299Z" stroke="#FF6B35" stroke-width="1.5"/>
<path d="M16.3916 6.18945C18.2422 6.50569 19.9296 7.38077 21.2695 8.7207C22.6092 10.0604 23.4834 11.7475 23.7998 13.5977H23.8008C23.8124 13.6692 23.7664 13.7157 23.7188 13.7236C23.7156 13.724 23.7127 13.7253 23.71 13.7256C23.7017 13.7266 23.6962 13.7262 23.6924 13.7266C23.6358 13.7263 23.5982 13.6898 23.5908 13.6455L23.5898 13.6416C23.2786 11.8295 22.4265 10.1814 21.1143 8.86914C19.8034 7.55844 18.1556 6.69855 16.3398 6.39355L16.335 6.39258C16.3125 6.38883 16.2944 6.3779 16.2803 6.35742C16.2652 6.3355 16.2584 6.30742 16.2637 6.27734C16.2737 6.22118 16.3256 6.17936 16.3916 6.18945Z" stroke="#FF6B35" stroke-width="1.5"/>
<path d="M16.6152 0.750977L16.6211 0.751953C19.7718 1.28921 22.6386 2.77334 24.9229 5.05762C27.2071 7.34187 28.6903 10.2087 29.2275 13.3594L29.2285 13.3652C29.2326 13.3881 29.228 13.4114 29.2129 13.4326C29.1979 13.4535 29.1788 13.4628 29.1592 13.4658L29.1582 13.4668C29.1523 13.4675 29.1472 13.4682 29.1426 13.4688C29.1332 13.4699 29.127 13.4703 29.123 13.4707C29.1166 13.4713 29.1188 13.4717 29.125 13.4717C29.0682 13.4716 29.0299 13.4331 29.0225 13.3887V13.3867C28.496 10.2814 27.0293 7.44926 24.7803 5.2002L24.7793 5.19922C22.5317 2.95838 19.7011 1.48492 16.5957 0.958008C16.5344 0.946165 16.4986 0.895301 16.5059 0.834961C16.5207 0.769747 16.5774 0.744295 16.6152 0.750977Z" stroke="#FF6B35" stroke-width="1.5"/>
</g>
<defs>
<clipPath id="clip0_305_2163">
<rect width="30" height="30" fill="white"/>
</clipPath>
</defs>
</svg>
