<svg width="24" height="24" viewBox="0 0 24 24" fill="none" xmlns="http://www.w3.org/2000/svg">
<g clip-path="url(#clip0_333_1412)">
<path d="M14.5737 8.57701C15.5204 8.57701 16.2879 7.8095 16.2879 6.86272C16.2879 5.91595 15.5204 5.14844 14.5737 5.14844C13.6269 5.14844 12.8594 5.91595 12.8594 6.86272C12.8594 7.8095 13.6269 8.57701 14.5737 8.57701Z" stroke="white" stroke-width="1.5" stroke-linecap="round" stroke-linejoin="round"/>
<path d="M7.71652 17.144C8.1899 17.144 8.57366 16.7602 8.57366 16.2868C8.57366 15.8134 8.1899 15.4297 7.71652 15.4297C7.24313 15.4297 6.85938 15.8134 6.85938 16.2868C6.85938 16.7602 7.24313 17.144 7.71652 17.144Z" stroke="white" stroke-width="1.5" stroke-linecap="round" stroke-linejoin="round"/>
<path d="M7.71429 11.1473C8.66106 11.1473 9.42857 10.3798 9.42857 9.43304C9.42857 8.48626 8.66106 7.71875 7.71429 7.71875C6.76751 7.71875 6 8.48626 6 9.43304C6 10.3798 6.76751 11.1473 7.71429 11.1473Z" stroke="white" stroke-width="1.5" stroke-linecap="round" stroke-linejoin="round"/>
<path d="M16.3209 21.0537C16.3018 20.7211 16.1863 20.4014 15.9884 20.1335C15.7905 19.8656 15.5189 19.6611 15.2066 19.5451C14.4313 19.2903 13.7723 18.7672 13.3481 18.0699C12.9239 17.3726 12.7623 16.5469 12.8925 15.7412C13.0226 14.9355 13.436 14.2026 14.0581 13.6743C14.6803 13.1461 15.4705 12.8571 16.2866 12.8594H19.4924C20.0422 12.8609 20.5843 12.7302 21.073 12.4782C21.5617 12.2263 21.9827 11.8605 22.3003 11.4117C22.618 10.963 22.8231 10.4444 22.8983 9.89971C22.9735 9.35505 22.9166 8.80029 22.7324 8.28224C22.0505 6.35704 20.8527 4.65627 19.2697 3.36574C17.6867 2.07522 15.7795 1.24458 13.7564 0.964588C11.7333 0.684594 9.67218 0.966012 7.7982 1.7781C5.92422 2.59018 4.30948 3.90169 3.13039 5.56934C1.9513 7.23698 1.25323 9.19661 1.11245 11.2341C0.97166 13.2716 1.39357 15.3087 2.33209 17.1226C3.27061 18.9366 4.68962 20.4577 6.4341 21.5198C8.17858 22.5819 10.1814 23.1442 12.2238 23.1451C13.2324 23.1479 14.2365 23.0094 15.2066 22.7337C15.563 22.6338 15.8716 22.4092 16.0761 22.1008C16.2807 21.7924 16.3676 21.4208 16.3209 21.0537V21.0537Z" stroke="white" stroke-width="1.5" stroke-linecap="round" stroke-linejoin="round"/>
</g>
<defs>
<clipPath id="clip0_333_1412">
<rect width="24" height="24" fill="white"/>
</clipPath>
</defs>
</svg>
