<svg width="24" height="24" viewBox="0 0 24 24" fill="none" xmlns="http://www.w3.org/2000/svg">
<g clip-path="url(#clip0_333_1419)">
<path d="M7.71261 22.2846C11.4997 22.2846 14.5698 19.2146 14.5698 15.4275C14.5698 11.6404 11.4997 8.57031 7.71261 8.57031C3.92552 8.57031 0.855469 11.6404 0.855469 15.4275C0.855469 19.2146 3.92552 22.2846 7.71261 22.2846Z" stroke="white" stroke-width="1.5" stroke-linecap="round" stroke-linejoin="round"/>
<path d="M16.2829 22.2846C20.07 22.2846 23.1401 19.2146 23.1401 15.4275C23.1401 11.6404 20.07 8.57031 16.2829 8.57031C12.4958 8.57031 9.42578 11.6404 9.42578 15.4275C9.42578 19.2146 12.4958 22.2846 16.2829 22.2846Z" stroke="white" stroke-width="1.5" stroke-linecap="round" stroke-linejoin="round"/>
<path d="M11.9978 15.4252C15.7849 15.4252 18.8549 12.3552 18.8549 8.56808C18.8549 4.78098 15.7849 1.71094 11.9978 1.71094C8.21067 1.71094 5.14062 4.78098 5.14062 8.56808C5.14062 12.3552 8.21067 15.4252 11.9978 15.4252Z" stroke="white" stroke-width="1.5" stroke-linecap="round" stroke-linejoin="round"/>
</g>
<defs>
<clipPath id="clip0_333_1419">
<rect width="24" height="24" fill="white"/>
</clipPath>
</defs>
</svg>
