<svg width="44" height="44" viewBox="0 0 44 44" fill="none" xmlns="http://www.w3.org/2000/svg">
<path d="M17.59 40.4379L16.0972 41.9307C15.657 42.3709 15.06 42.6182 14.4376 42.6182C13.8151 42.6183 13.2181 42.3711 12.7778 41.9311L2.0625 31.2154C1.6223 30.7752 1.375 30.1781 1.375 29.5555C1.375 28.933 1.6223 28.3359 2.0625 27.8957L3.55558 26.4028L17.59 40.4379ZM41.9375 12.771L31.2222 2.05538C30.775 1.62863 30.1806 1.39056 29.5624 1.39063C28.9443 1.39069 28.3499 1.62888 27.9028 2.05572L26.4098 3.54871L40.4444 17.5836L41.9375 16.0907C42.3777 15.6505 42.625 15.0534 42.625 14.4309C42.625 13.8083 42.3777 13.2113 41.9375 12.771ZM9.90967 19.2429C9.46244 18.8162 8.86809 18.5782 8.25 18.5782C7.63191 18.5782 7.03756 18.8162 6.59034 19.2429L4.125 21.7082C3.6848 22.1484 3.4375 22.7455 3.4375 23.368C3.4375 23.9906 3.6848 24.5877 4.125 25.0279L18.9653 39.8686C19.4056 40.3086 20.0026 40.5558 20.6251 40.5557C21.2475 40.5557 21.8445 40.3084 22.2847 39.8682L24.75 37.4032C25.1902 36.963 25.4375 36.3659 25.4375 35.7434C25.4375 35.1208 25.1902 34.5238 24.75 34.0836L9.90967 19.2429ZM40.5625 20.6182C40.5634 20.9266 40.503 21.2321 40.385 21.5171C40.267 21.802 40.0937 22.0607 39.875 22.2782L37.4097 24.7432C36.9694 25.1832 36.3724 25.4307 35.75 25.4307C35.1276 25.4307 34.5306 25.1836 34.0903 24.7436L19.25 9.90288C18.8098 9.46266 18.5625 8.8656 18.5625 8.24305C18.5625 7.62049 18.8098 7.02344 19.25 6.58321L21.7153 4.11822C22.1624 3.69138 22.7568 3.45319 23.3749 3.45313C23.9931 3.45306 24.5875 3.69113 25.0347 4.11788L39.875 18.9585C40.0937 19.176 40.267 19.4346 40.3851 19.7195C40.5031 20.0044 40.5634 20.3099 40.5625 20.6182ZM3.89916 34.9966L3.4375 35.4582C2.9973 35.8984 2.75 36.4955 2.75 37.118C2.75 37.7406 2.9973 38.3377 3.4375 38.7779L5.21533 40.5561C5.65559 40.9961 6.2526 41.2433 6.87507 41.2432C7.49754 41.2432 8.0945 40.9959 8.53467 40.5557L8.99633 40.0941L3.89916 34.9966ZM40.1008 8.98992L40.5625 8.52822C41.0027 8.088 41.25 7.49094 41.25 6.86839C41.25 6.24583 41.0027 5.64877 40.5625 5.20855L38.7847 3.43038C38.3375 3.00363 37.7431 2.76556 37.1249 2.76563C36.5068 2.76569 35.9124 3.00388 35.4653 3.43072L35.0035 3.8925L40.1008 8.98992ZM23.1492 15.7467L15.7534 23.1424L20.8507 28.2398L28.2465 20.8441L23.1492 15.7467Z" fill="#FF6B35"/>
</svg>
