<svg width="40" height="40" viewBox="0 0 40 40" fill="none" xmlns="http://www.w3.org/2000/svg">
<g clip-path="url(#clip0_311_611)">
<path d="M21.3431 19.7165C20.9193 19.9005 20.4622 19.9955 20.0002 19.9955C19.5382 19.9955 19.0811 19.9005 18.6574 19.7165L2.37164 12.1736C2.10719 12.0402 1.88495 11.8361 1.72968 11.5838C1.5744 11.3316 1.49219 11.0412 1.49219 10.745C1.49219 10.4489 1.5744 10.1585 1.72968 9.90626C1.88495 9.65403 2.10719 9.44986 2.37164 9.31648L18.6574 1.71648C19.0811 1.53246 19.5382 1.4375 20.0002 1.4375C20.4622 1.4375 20.9193 1.53246 21.3431 1.71648L37.6288 9.25933C37.8932 9.39272 38.1155 9.59689 38.2708 9.84912C38.426 10.1013 38.5082 10.3917 38.5082 10.6879C38.5082 10.9841 38.426 11.2745 38.2708 11.5267C38.1155 11.7789 37.8932 11.9831 37.6288 12.1165L21.3431 19.7165Z" stroke="#FF6B35" stroke-width="2" stroke-linecap="round" stroke-linejoin="round"/>
<path d="M38.5725 21L21.144 29.0286C20.7717 29.1984 20.3674 29.2862 19.9583 29.2862C19.5491 29.2862 19.1448 29.1984 18.7725 29.0286L1.42969 21" stroke="#FF6B35" stroke-width="2" stroke-linecap="round" stroke-linejoin="round"/>
<path d="M38.5725 30.2891L21.144 38.3176C20.7717 38.4874 20.3674 38.5753 19.9583 38.5753C19.5491 38.5753 19.1448 38.4874 18.7725 38.3176L1.42969 30.2891" stroke="#FF6B35" stroke-width="2" stroke-linecap="round" stroke-linejoin="round"/>
</g>
<defs>
<clipPath id="clip0_311_611">
<rect width="40" height="40" fill="white"/>
</clipPath>
</defs>
</svg>
