<svg width="30" height="30" viewBox="0 0 30 30" fill="none" xmlns="http://www.w3.org/2000/svg">
<path d="M15 0.75C19.9197 0.75 23.918 4.80131 23.918 9.72656C23.918 11.5823 23.3516 13.3606 22.2793 14.873L22.2783 14.874C22.173 15.0235 22.5562 14.4276 19.376 19.418L18.7578 20.3877L19.8945 20.5625C21.3796 20.7907 23.3424 21.2396 24.9131 21.9814C26.5434 22.7516 27.4336 23.6771 27.4336 24.7266C27.4336 25.324 27.1479 25.9 26.5156 26.4609C25.8742 27.03 24.919 27.54 23.7158 27.9639C21.3139 28.81 18.1077 29.25 15 29.25C11.6752 29.25 8.57022 28.7816 6.25586 27.9551C4.59822 27.3631 3.67611 26.7148 3.17285 26.1494C2.68337 25.5994 2.56641 25.103 2.56641 24.7266C2.56641 23.6777 3.45733 22.752 5.08887 21.9814C6.66042 21.2393 8.62353 20.7902 10.1055 20.5625L11.2422 20.3877L10.624 19.418L7.79199 14.9746L7.78027 14.9561L7.76758 14.9385L7.56641 14.6475C6.59076 13.1776 6.08203 11.4644 6.08203 9.72656C6.08203 4.79396 10.0964 0.75 15 0.75ZM18.3369 21.0479L15.1084 26.1143C15.0848 26.1512 15.0441 26.1738 15 26.1738C14.967 26.1738 14.9356 26.1615 14.9121 26.1396L14.8916 26.1143L11.6631 21.0479L11.4082 20.6484L10.9375 20.707C8.31189 21.0336 6.35908 21.6205 5.03906 22.2842C4.38084 22.6152 3.85358 22.9784 3.48047 23.3594C3.12221 23.7253 2.82422 24.1939 2.82422 24.7266C2.82422 25.4694 3.36249 26.0695 3.93652 26.501C4.55089 26.9627 5.40931 27.3874 6.44824 27.749C8.5339 28.475 11.4758 28.9922 15 28.9922C18.5447 28.9922 21.4872 28.4721 23.5684 27.7441C24.605 27.3816 25.4592 26.9565 26.0703 26.4951C26.6412 26.0641 27.1758 25.4654 27.1758 24.7266C27.1758 24.1939 26.8778 23.7253 26.5195 23.3594C26.1464 22.9784 25.6192 22.6152 24.9609 22.2842C23.6409 21.6205 21.6881 21.0336 19.0625 20.707L18.5918 20.6484L18.3369 21.0479ZM15 1.00781C10.2094 1.00781 6.33984 4.92245 6.33984 9.72656C6.33984 11.5187 6.89676 13.302 7.99023 14.8066C7.99171 14.8087 7.99388 14.8106 7.99512 14.8125V14.8135L14.3672 24.8125L15 25.8047L15.6328 24.8125C19.0445 19.4591 20.6396 16.954 21.3926 15.7734C22.1585 14.5726 22.0451 14.7547 22.0635 14.7305L22.0713 14.7207L22.0791 14.71C23.1132 13.2454 23.6602 11.521 23.6602 9.72656C23.6602 4.92357 19.7811 1.00781 15 1.00781Z" stroke="#FF6B35" stroke-width="1.5"/>
<path d="M15 6.07812C17.0089 6.07812 18.6445 7.71373 18.6445 9.72266C18.6445 11.7316 17.0089 13.3672 15 13.3672C12.9911 13.3672 11.3555 11.7316 11.3555 9.72266C11.3555 7.71373 12.9911 6.07812 15 6.07812ZM15 6.33594C13.1319 6.33594 11.6133 7.85456 11.6133 9.72266C11.6133 11.5908 13.1319 13.1094 15 13.1094C16.8681 13.1094 18.3867 11.5908 18.3867 9.72266C18.3867 7.85456 16.8681 6.33594 15 6.33594Z" stroke="#FF6B35" stroke-width="1.5"/>
</svg>
