<svg width="50" height="50" viewBox="0 0 50 50" fill="none" xmlns="http://www.w3.org/2000/svg">
<path d="M30.3566 17.8616C32.329 17.8616 33.928 16.2626 33.928 14.2902C33.928 12.3177 32.329 10.7188 30.3566 10.7188C28.3841 10.7188 26.7852 12.3177 26.7852 14.2902C26.7852 16.2626 28.3841 17.8616 30.3566 17.8616Z" stroke="#FF6B35" stroke-width="1.5" stroke-linecap="round" stroke-linejoin="round"/>
<path d="M16.0709 35.7199C17.0571 35.7199 17.8566 34.9204 17.8566 33.9342C17.8566 32.9479 17.0571 32.1484 16.0709 32.1484C15.0846 32.1484 14.2852 32.9479 14.2852 33.9342C14.2852 34.9204 15.0846 35.7199 16.0709 35.7199Z" stroke="#FF6B35" stroke-width="1.5" stroke-linecap="round" stroke-linejoin="round"/>
<path d="M16.0714 23.221C18.0439 23.221 19.6429 21.622 19.6429 19.6496C19.6429 17.6771 18.0439 16.0781 16.0714 16.0781C14.099 16.0781 12.5 17.6771 12.5 19.6496C12.5 21.622 14.099 23.221 16.0714 23.221Z" stroke="#FF6B35" stroke-width="1.5" stroke-linecap="round" stroke-linejoin="round"/>
<path d="M34.0013 43.8605C33.9615 43.1677 33.7207 42.5016 33.3085 41.9435C32.8962 41.3853 32.3303 40.9594 31.6799 40.7176C30.0645 40.1867 28.6916 39.097 27.8078 37.6443C26.9241 36.1917 26.5875 34.4714 26.8587 32.7928C27.1298 31.1142 27.9909 29.5874 29.2871 28.4869C30.5833 27.3864 32.2295 26.7844 33.9299 26.7891H40.6084C41.7539 26.7923 42.8833 26.5199 43.9015 25.995C44.9196 25.4701 45.7965 24.7081 46.4584 23.7731C47.1202 22.8382 47.5474 21.7578 47.7041 20.6231C47.8607 19.4884 47.7422 18.3326 47.3584 17.2534C45.9379 13.2425 43.4424 9.69926 40.1446 7.01066C36.8467 4.32207 32.8733 2.59158 28.6585 2.00826C24.4437 1.42494 20.1497 2.01122 16.2456 3.70306C12.3415 5.39491 8.97742 8.12722 6.52099 11.6015C4.06456 15.0757 2.61025 19.1583 2.31695 23.4031C2.02364 27.648 2.90263 31.8917 4.85787 35.6708C6.81311 39.4499 9.76939 42.619 13.4037 44.8317C17.0381 47.0444 21.2106 48.2157 25.4656 48.2176C27.5669 48.2235 29.6586 47.935 31.6799 47.3605C32.4222 47.1525 33.0651 46.6846 33.4913 46.0421C33.9174 45.3996 34.0984 44.6253 34.0013 43.8605V43.8605Z" stroke="#FF6B35" stroke-width="1.5" stroke-linecap="round" stroke-linejoin="round"/>
</svg>
