<svg width="50" height="50" viewBox="0 0 50 50" fill="none" xmlns="http://www.w3.org/2000/svg">
<path d="M24.9994 48.2176C37.8203 48.2176 48.2137 37.8242 48.2137 25.0033C48.2137 12.1825 37.8203 1.78906 24.9994 1.78906C12.1785 1.78906 1.78516 12.1825 1.78516 25.0033C1.78516 37.8242 12.1785 48.2176 24.9994 48.2176Z" stroke="#FF6B35" stroke-width="1.5" stroke-linecap="round" stroke-linejoin="round"/>
<path d="M24.9989 33.9353C29.93 33.9353 33.9275 29.9378 33.9275 25.0067C33.9275 20.0756 29.93 16.0781 24.9989 16.0781C20.0678 16.0781 16.0703 20.0756 16.0703 25.0067C16.0703 29.9378 20.0678 33.9353 24.9989 33.9353Z" stroke="#FF6B35" stroke-width="1.5" stroke-linecap="round" stroke-linejoin="round"/>
<path d="M16.0703 25.0067V3.57812" stroke="#FF6B35" stroke-width="1.5" stroke-linecap="round" stroke-linejoin="round"/>
<path d="M25 16.0781H46.4286" stroke="#FF6B35" stroke-width="1.5" stroke-linecap="round" stroke-linejoin="round"/>
<path d="M33.9297 25V46.4286" stroke="#FF6B35" stroke-width="1.5" stroke-linecap="round" stroke-linejoin="round"/>
<path d="M24.9989 33.9297H3.57031" stroke="#FF6B35" stroke-width="1.5" stroke-linecap="round" stroke-linejoin="round"/>
</svg>
