<svg width="39" height="40" viewBox="0 0 39 40" fill="none" xmlns="http://www.w3.org/2000/svg">
<path d="M19.5 28.625V31.5107" stroke="white" stroke-width="1.5" stroke-linecap="round" stroke-linejoin="round"/>
<path d="M19.5 14.3125V16.9982" stroke="white" stroke-width="1.5" stroke-linecap="round" stroke-linejoin="round"/>
<path d="M19.4994 38.5437C29.2494 38.5437 36.2137 35.0009 36.2137 27.1152C36.2137 18.5437 32.0352 12.8295 23.678 8.54375L26.9652 4.20089C27.1322 3.91595 27.2227 3.59079 27.2277 3.25838C27.2327 2.92596 27.1519 2.5981 26.9935 2.30803C26.8351 2.01796 26.6048 1.77599 26.3259 1.60665C26.0469 1.4373 25.7293 1.34661 25.4052 1.34375H13.5937C13.2696 1.34661 12.952 1.4373 12.673 1.60665C12.3941 1.77599 12.1637 2.01796 12.0054 2.30803C11.847 2.5981 11.7662 2.92596 11.7712 3.25838C11.7762 3.59079 11.8667 3.91595 12.0337 4.20089L15.3209 8.57232C6.96373 12.8866 2.78516 18.6009 2.78516 27.1723C2.78516 35.0009 9.74944 38.5437 19.4994 38.5437Z" stroke="white" stroke-width="1.5" stroke-linecap="round" stroke-linejoin="round"/>
<path d="M16.7129 27.3136C17.0528 27.7274 17.4806 28.0559 17.9635 28.2738C18.4464 28.4917 18.9715 28.5933 19.4986 28.5707C20.3042 28.6271 21.0998 28.3608 21.718 27.828C22.3362 27.2952 22.7289 26.5372 22.8136 25.7136C22.7289 24.8899 22.3362 24.132 21.718 23.5992C21.0998 23.0664 20.3042 22.8001 19.4986 22.8564C18.6929 22.9128 17.8974 22.6465 17.2792 22.1137C16.661 21.5809 16.2682 20.823 16.1836 19.9993C16.2614 19.1728 16.6523 18.4105 17.2721 17.8763C17.8919 17.342 18.6913 17.0785 19.4986 17.1422C20.0164 17.1097 20.5348 17.1953 21.0165 17.3929C21.4982 17.5905 21.9312 17.8952 22.2843 18.285" stroke="white" stroke-width="1.5" stroke-linecap="round" stroke-linejoin="round"/>
</svg>
