<svg width="24" height="24" viewBox="0 0 24 24" fill="none" xmlns="http://www.w3.org/2000/svg">
<g clip-path="url(#clip0_333_1405)">
<path d="M5.56975 10.2879C8.17338 10.2879 10.284 8.17729 10.284 5.57366C10.284 2.97003 8.17338 0.859375 5.56975 0.859375C2.96613 0.859375 0.855469 2.97003 0.855469 5.57366C0.855469 8.17729 2.96613 10.2879 5.56975 10.2879Z" stroke="white" stroke-width="1.5" stroke-linecap="round" stroke-linejoin="round"/>
<path d="M18.4252 10.2879C21.0289 10.2879 23.1395 8.17729 23.1395 5.57366C23.1395 2.97003 21.0289 0.859375 18.4252 0.859375C15.8216 0.859375 13.7109 2.97003 13.7109 5.57366C13.7109 8.17729 15.8216 10.2879 18.4252 10.2879Z" stroke="white" stroke-width="1.5" stroke-linecap="round" stroke-linejoin="round"/>
<path d="M5.56975 23.1473C8.17338 23.1473 10.284 21.0367 10.284 18.433C10.284 15.8294 8.17338 13.7188 5.56975 13.7188C2.96613 13.7188 0.855469 15.8294 0.855469 18.433C0.855469 21.0367 2.96613 23.1473 5.56975 23.1473Z" stroke="white" stroke-width="1.5" stroke-linecap="round" stroke-linejoin="round"/>
<path d="M18.4252 23.1473C21.0289 23.1473 23.1395 21.0367 23.1395 18.433C23.1395 15.8294 21.0289 13.7188 18.4252 13.7188C15.8216 13.7188 13.7109 15.8294 13.7109 18.433C13.7109 21.0367 15.8216 23.1473 18.4252 23.1473Z" stroke="white" stroke-width="1.5" stroke-linecap="round" stroke-linejoin="round"/>
</g>
<defs>
<clipPath id="clip0_333_1405">
<rect width="24" height="24" fill="white"/>
</clipPath>
</defs>
</svg>
