<svg width="24" height="24" viewBox="0 0 24 24" fill="none" xmlns="http://www.w3.org/2000/svg">
<g clip-path="url(#clip0_331_1342)">
<path d="M12.809 11.8268C12.5547 11.9372 12.2805 11.9941 12.0033 11.9941C11.7261 11.9941 11.4518 11.9372 11.1975 11.8268L1.42611 7.30105C1.26744 7.22102 1.1341 7.09851 1.04093 6.94718C0.947767 6.79584 0.898437 6.62162 0.898438 6.4439C0.898437 6.26619 0.947767 6.09197 1.04093 5.94063C1.1341 5.7893 1.26744 5.66679 1.42611 5.58676L11.1975 1.02676C11.4518 0.916349 11.7261 0.859375 12.0033 0.859375C12.2805 0.859375 12.5547 0.916349 12.809 1.02676L22.5804 5.55247C22.7391 5.63251 22.8724 5.75501 22.9656 5.90634C23.0587 6.05768 23.1081 6.2319 23.1081 6.40962C23.1081 6.58733 23.0587 6.76156 22.9656 6.91289C22.8724 7.06422 22.7391 7.18673 22.5804 7.26676L12.809 11.8268Z" stroke="white" stroke-width="1.5" stroke-linecap="round" stroke-linejoin="round"/>
<path d="M23.1451 12.6016L12.6879 17.4187C12.4646 17.5206 12.222 17.5733 11.9765 17.5733C11.731 17.5733 11.4884 17.5206 11.2651 17.4187L0.859375 12.6016" stroke="white" stroke-width="1.5" stroke-linecap="round" stroke-linejoin="round"/>
<path d="M23.1451 18.1719L12.6879 22.989C12.4646 23.0909 12.222 23.1436 11.9765 23.1436C11.731 23.1436 11.4884 23.0909 11.2651 22.989L0.859375 18.1719" stroke="white" stroke-width="1.5" stroke-linecap="round" stroke-linejoin="round"/>
</g>
<defs>
<clipPath id="clip0_331_1342">
<rect width="24" height="24" fill="white"/>
</clipPath>
</defs>
</svg>
