<svg width="40" height="40" viewBox="0 0 40 40" fill="none" xmlns="http://www.w3.org/2000/svg">
<g clip-path="url(#clip0_336_1641)">
<path d="M20.0011 38.5725C30.2578 38.5725 38.5725 30.2578 38.5725 20.0011C38.5725 9.7444 30.2578 1.42969 20.0011 1.42969C9.7444 1.42969 1.42969 9.7444 1.42969 20.0011C1.42969 30.2578 9.7444 38.5725 20.0011 38.5725Z" stroke="#FF6B35" stroke-width="1.5" stroke-linecap="round" stroke-linejoin="round"/>
<path d="M20.0022 27.1451C23.9471 27.1451 27.1451 23.9471 27.1451 20.0022C27.1451 16.0573 23.9471 12.8594 20.0022 12.8594C16.0573 12.8594 12.8594 16.0573 12.8594 20.0022C12.8594 23.9471 16.0573 27.1451 20.0022 27.1451Z" stroke="#FF6B35" stroke-width="1.5" stroke-linecap="round" stroke-linejoin="round"/>
<path d="M12.8594 20.0022V2.85938" stroke="#FF6B35" stroke-width="1.5" stroke-linecap="round" stroke-linejoin="round"/>
<path d="M20 12.8594H37.1429" stroke="#FF6B35" stroke-width="1.5" stroke-linecap="round" stroke-linejoin="round"/>
<path d="M27.1445 20V37.1429" stroke="#FF6B35" stroke-width="1.5" stroke-linecap="round" stroke-linejoin="round"/>
<path d="M20.0022 27.1406H2.85938" stroke="#FF6B35" stroke-width="1.5" stroke-linecap="round" stroke-linejoin="round"/>
</g>
<defs>
<clipPath id="clip0_336_1641">
<rect width="40" height="40" fill="white"/>
</clipPath>
</defs>
</svg>
