<svg width="40" height="40" viewBox="0 0 40 40" fill="none" xmlns="http://www.w3.org/2000/svg">
<g clip-path="url(#clip0_428_42)">
<path d="M20.0011 15.7154C30.2578 15.7154 38.5725 12.5174 38.5725 8.57255C38.5725 4.62765 30.2578 1.42969 20.0011 1.42969C9.7444 1.42969 1.42969 4.62765 1.42969 8.57255C1.42969 12.5174 9.7444 15.7154 20.0011 15.7154Z" stroke="white" stroke-width="1.5" stroke-linecap="round" stroke-linejoin="round"/>
<path d="M1.42969 8.57031V31.4275C1.42969 35.3703 9.74397 38.5703 20.0011 38.5703C30.2583 38.5703 38.5725 35.3703 38.5725 31.4275V8.57031" stroke="white" stroke-width="1.5" stroke-linecap="round" stroke-linejoin="round"/>
<path d="M38.5725 20C38.5725 23.9429 30.2583 27.1429 20.0011 27.1429C9.74397 27.1429 1.42969 23.9429 1.42969 20" stroke="white" stroke-width="1.5" stroke-linecap="round" stroke-linejoin="round"/>
</g>
<defs>
<clipPath id="clip0_428_42">
<rect width="40" height="40" fill="white"/>
</clipPath>
</defs>
</svg>
