<svg width="30" height="30" viewBox="0 0 30 30" fill="none" xmlns="http://www.w3.org/2000/svg">
<g clip-path="url(#clip0_424_32)">
<path d="M14.9989 28.9275C22.6914 28.9275 28.9275 22.6914 28.9275 14.9989C28.9275 7.30635 22.6914 1.07031 14.9989 1.07031C7.30635 1.07031 1.07031 7.30635 1.07031 14.9989C1.07031 22.6914 7.30635 28.9275 14.9989 28.9275Z" stroke="#FF6B35" stroke-width="1.5" stroke-linecap="round" stroke-linejoin="round"/>
<path d="M1.07031 15H28.9275" stroke="#FF6B35" stroke-width="1.5" stroke-linecap="round" stroke-linejoin="round"/>
<path d="M20.3549 14.9989C20.0918 20.0924 18.2157 24.9703 14.9978 28.9275C11.7799 24.9703 9.90376 20.0924 9.64062 14.9989C9.90376 9.90533 11.7799 5.02742 14.9978 1.07031C18.2157 5.02742 20.0918 9.90533 20.3549 14.9989V14.9989Z" stroke="#FF6B35" stroke-width="1.5" stroke-linecap="round" stroke-linejoin="round"/>
</g>
<defs>
<clipPath id="clip0_424_32">
<rect width="30" height="30" fill="white"/>
</clipPath>
</defs>
</svg>
