<svg width="40" height="40" viewBox="0 0 40 40" fill="none" xmlns="http://www.w3.org/2000/svg">
<g clip-path="url(#clip0_428_74)">
<path d="M38.5725 20.0011H1.42969C1.42969 15.0757 3.38631 10.352 6.86913 6.86913C10.352 3.38631 15.0757 1.42969 20.0011 1.42969C24.9266 1.42969 29.6503 3.38631 33.1331 6.86913C36.6159 10.352 38.5725 15.0757 38.5725 20.0011Z" stroke="white" stroke-width="1.5" stroke-linecap="round" stroke-linejoin="round"/>
<path d="M3 27.4609C3.56841 28.7836 4.29772 30.0311 5.17143 31.1752C5.99903 32.3212 6.95794 33.3665 8.02857 34.2895" stroke="white" stroke-width="1.5" stroke-linecap="round" stroke-linejoin="round"/>
<path d="M37.1458 27.4609C36.5773 28.7836 35.848 30.0311 34.9743 31.1752C34.1467 32.3212 33.1878 33.3665 32.1172 34.2895" stroke="white" stroke-width="1.5" stroke-linecap="round" stroke-linejoin="round"/>
<path d="M15.7148 38.0859C18.5353 38.7338 21.4659 38.7338 24.2863 38.0859" stroke="white" stroke-width="1.5" stroke-linecap="round" stroke-linejoin="round"/>
</g>
<defs>
<clipPath id="clip0_428_74">
<rect width="40" height="40" fill="white"/>
</clipPath>
</defs>
</svg>
