<svg width="50" height="50" viewBox="0 0 50 50" fill="none" xmlns="http://www.w3.org/2000/svg">
<path d="M44.6423 1.78906H5.35658C3.38414 1.78906 1.78516 3.38805 1.78516 5.36049V44.6462C1.78516 46.6187 3.38414 48.2176 5.35658 48.2176H44.6423C46.6147 48.2176 48.2137 46.6187 48.2137 44.6462V5.36049C48.2137 3.38805 46.6147 1.78906 44.6423 1.78906Z" stroke="#FF6B35" stroke-width="1.5" stroke-linecap="round" stroke-linejoin="round"/>
<path d="M25 41.0781C31.9036 41.0781 37.5 35.4817 37.5 28.5781C37.5 21.6746 31.9036 16.0781 25 16.0781C18.0964 16.0781 12.5 21.6746 12.5 28.5781C12.5 35.4817 18.0964 41.0781 25 41.0781Z" stroke="#FF6B35" stroke-width="1.5" stroke-linecap="round" stroke-linejoin="round"/>
<path d="M1.78516 12.5H12.4994" stroke="#FF6B35" stroke-width="1.5" stroke-linecap="round" stroke-linejoin="round"/>
<path d="M37.5 12.5H48.2143" stroke="#FF6B35" stroke-width="1.5" stroke-linecap="round" stroke-linejoin="round"/>
<path d="M25 28.4688V40.9688" stroke="#FF6B35" stroke-width="1.5" stroke-linecap="round" stroke-linejoin="round"/>
<path d="M14.2852 22.1484L24.9994 28.4699" stroke="#FF6B35" stroke-width="1.5" stroke-linecap="round" stroke-linejoin="round"/>
<path d="M35.7143 22.1484L25 28.4699" stroke="#FF6B35" stroke-width="1.5" stroke-linecap="round" stroke-linejoin="round"/>
</svg>
