<svg width="49" height="50" viewBox="0 0 49 50" fill="none" xmlns="http://www.w3.org/2000/svg">
<path d="M37.2384 5.5H11.7584C11.171 5.51646 10.5956 5.67375 10.0788 5.95915C9.56197 6.24455 9.11823 6.65005 8.78343 7.14286L2.41343 16.1429C1.94043 16.8249 1.70421 17.6486 1.74225 18.4833C1.7803 19.3179 2.09043 20.1157 2.62343 20.75L21.7334 43.2143C22.0606 43.6444 22.4798 43.9926 22.959 44.2321C23.4383 44.4715 23.9648 44.596 24.4984 44.596C25.032 44.596 25.5586 44.4715 26.0378 44.2321C26.517 43.9926 26.9363 43.6444 27.2634 43.2143L46.3734 20.75C46.9064 20.1157 47.2166 19.3179 47.2546 18.4833C47.2927 17.6486 47.0564 16.8249 46.5834 16.1429L40.2134 7.14286C39.8786 6.65005 39.4349 6.24455 38.9181 5.95915C38.4012 5.67375 37.8259 5.51646 37.2384 5.5V5.5Z" stroke="#FF6B35" stroke-width="1.5" stroke-linecap="round" stroke-linejoin="round"/>
<path d="M22.6767 5.46094L14.1367 18.9609L24.4967 44.4967" stroke="#FF6B35" stroke-width="1.5" stroke-linecap="round" stroke-linejoin="round"/>
<path d="M26.425 5.46094L34.93 18.9609L24.5 44.4967" stroke="#FF6B35" stroke-width="1.5" stroke-linecap="round" stroke-linejoin="round"/>
<path d="M1.82031 18.9609H47.1803" stroke="#FF6B35" stroke-width="1.5" stroke-linecap="round" stroke-linejoin="round"/>
</svg>
