<svg width="48" height="48" viewBox="0 0 48 48" fill="none" xmlns="http://www.w3.org/2000/svg">
<circle cx="24" cy="24" r="24" fill="#FF6B35"/>
<g clip-path="url(#clip0_528_357)">
<path d="M20.287 22.0033L30.8472 23.852C32.1758 24.0765 33.1875 25.2326 33.1875 26.625C33.1875 28.0174 32.1757 29.1735 30.8472 29.398L20.287 31.2467C20.0311 31.29 19.7683 31.3125 19.5 31.3125C16.9112 31.3125 14.8125 29.2138 14.8125 26.625C14.8125 24.0362 16.9112 21.9375 19.5 21.9375C19.7683 21.9375 20.0311 21.96 20.287 22.0033Z" stroke="white" stroke-width="1.5" stroke-miterlimit="10" stroke-linecap="round" stroke-linejoin="round"/>
<path d="M33.1859 35.065L31.1055 29.3438" stroke="white" stroke-width="1.5" stroke-miterlimit="10" stroke-linecap="round" stroke-linejoin="round"/>
<path d="M28.9968 23.5392L27.0508 18.1875" stroke="white" stroke-width="1.5" stroke-miterlimit="10" stroke-linecap="round" stroke-linejoin="round"/>
<path d="M14.8125 35.0622L16.6874 30.375" stroke="white" stroke-width="1.5" stroke-miterlimit="10" stroke-linecap="round" stroke-linejoin="round"/>
<path d="M17.0368 22.6361L14.8125 18.1875" stroke="white" stroke-width="1.5" stroke-miterlimit="10" stroke-linecap="round" stroke-linejoin="round"/>
<path d="M12.9375 18.1875H18.5625" stroke="white" stroke-width="1.5" stroke-miterlimit="10" stroke-linecap="round" stroke-linejoin="round"/>
<path d="M31.6875 12.9375C31.6875 13.973 30.848 14.8125 29.8125 14.8125H22.3125" stroke="white" stroke-width="1.5" stroke-miterlimit="10" stroke-linecap="round" stroke-linejoin="round"/>
<path d="M12.9375 35.0625H16.6875" stroke="white" stroke-width="1.5" stroke-miterlimit="10" stroke-linecap="round" stroke-linejoin="round"/>
<path d="M31.3125 35.0625H35.0625" stroke="white" stroke-width="1.5" stroke-miterlimit="10" stroke-linecap="round" stroke-linejoin="round"/>
<path d="M19.5 26.625L22.3125 27.5625" stroke="white" stroke-width="1.5" stroke-miterlimit="10" stroke-linecap="round" stroke-linejoin="round"/>
</g>
<defs>
<clipPath id="clip0_528_357">
<rect width="24" height="24" fill="white" transform="translate(12 12)"/>
</clipPath>
</defs>
</svg>
