<svg width="182" height="48" viewBox="0 0 182 48" fill="none" xmlns="http://www.w3.org/2000/svg">
<circle cx="24" cy="24" r="24" fill="#FF6B35"/>
<g clip-path="url(#clip0_528_273)">
<path d="M20.287 22.0033L30.8472 23.852C32.1758 24.0765 33.1875 25.2326 33.1875 26.625C33.1875 28.0174 32.1757 29.1735 30.8472 29.398L20.287 31.2467C20.0311 31.29 19.7683 31.3125 19.5 31.3125C16.9112 31.3125 14.8125 29.2138 14.8125 26.625C14.8125 24.0362 16.9112 21.9375 19.5 21.9375C19.7683 21.9375 20.0311 21.96 20.287 22.0033Z" stroke="white" stroke-width="1.5" stroke-miterlimit="10" stroke-linecap="round" stroke-linejoin="round"/>
<path d="M33.1859 35.065L31.1055 29.3438" stroke="white" stroke-width="1.5" stroke-miterlimit="10" stroke-linecap="round" stroke-linejoin="round"/>
<path d="M28.9968 23.5392L27.0508 18.1875" stroke="white" stroke-width="1.5" stroke-miterlimit="10" stroke-linecap="round" stroke-linejoin="round"/>
<path d="M14.8125 35.0622L16.6874 30.375" stroke="white" stroke-width="1.5" stroke-miterlimit="10" stroke-linecap="round" stroke-linejoin="round"/>
<path d="M17.0368 22.6361L14.8125 18.1875" stroke="white" stroke-width="1.5" stroke-miterlimit="10" stroke-linecap="round" stroke-linejoin="round"/>
<path d="M12.9375 18.1875H18.5625" stroke="white" stroke-width="1.5" stroke-miterlimit="10" stroke-linecap="round" stroke-linejoin="round"/>
<path d="M31.6875 12.9375C31.6875 13.973 30.848 14.8125 29.8125 14.8125H22.3125" stroke="white" stroke-width="1.5" stroke-miterlimit="10" stroke-linecap="round" stroke-linejoin="round"/>
<path d="M12.9375 35.0625H16.6875" stroke="white" stroke-width="1.5" stroke-miterlimit="10" stroke-linecap="round" stroke-linejoin="round"/>
<path d="M31.3125 35.0625H35.0625" stroke="white" stroke-width="1.5" stroke-miterlimit="10" stroke-linecap="round" stroke-linejoin="round"/>
<path d="M19.5 26.625L22.3125 27.5625" stroke="white" stroke-width="1.5" stroke-miterlimit="10" stroke-linecap="round" stroke-linejoin="round"/>
</g>
<path d="M72.776 32.312C71.336 32.312 70.032 32.144 68.864 31.808C67.712 31.472 66.712 30.968 65.864 30.296C65.032 29.624 64.392 28.792 63.944 27.8C63.496 26.808 63.272 25.664 63.272 24.368C63.272 23.056 63.504 21.896 63.968 20.888C64.448 19.864 65.12 19 65.984 18.296C66.864 17.592 67.904 17.064 69.104 16.712C70.32 16.344 71.664 16.16 73.136 16.16C74.88 16.16 76.384 16.408 77.648 16.904C78.912 17.384 79.904 18.064 80.624 18.944C81.36 19.824 81.776 20.872 81.872 22.088H78.8C78.592 21.448 78.248 20.896 77.768 20.432C77.304 19.952 76.688 19.584 75.92 19.328C75.152 19.056 74.224 18.92 73.136 18.92C71.744 18.92 70.552 19.144 69.56 19.592C68.584 20.04 67.84 20.672 67.328 21.488C66.816 22.304 66.56 23.264 66.56 24.368C66.56 25.44 66.784 26.368 67.232 27.152C67.68 27.92 68.368 28.512 69.296 28.928C70.24 29.344 71.44 29.552 72.896 29.552C74.016 29.552 75 29.408 75.848 29.12C76.712 28.816 77.432 28.416 78.008 27.92C78.584 27.408 78.992 26.84 79.232 26.216L80.48 25.76C80.272 27.824 79.488 29.432 78.128 30.584C76.784 31.736 75 32.312 72.776 32.312ZM79.664 32C79.664 31.504 79.696 30.936 79.76 30.296C79.824 29.64 79.904 28.984 80 28.328C80.096 27.656 80.184 27.04 80.264 26.48H73.16V24.44H82.424V32H79.664ZM91.1855 32.264C90.0015 32.264 88.9215 32.008 87.9455 31.496C86.9855 30.968 86.2175 30.24 85.6415 29.312C85.0815 28.368 84.8015 27.28 84.8015 26.048C84.8015 24.784 85.0895 23.688 85.6655 22.76C86.2415 21.832 87.0175 21.112 87.9935 20.6C88.9855 20.072 90.1055 19.808 91.3535 19.808C92.7295 19.808 93.8335 20.088 94.6655 20.648C95.5135 21.192 96.1295 21.936 96.5135 22.88C96.8975 23.824 97.0895 24.88 97.0895 26.048C97.0895 26.752 96.9775 27.472 96.7535 28.208C96.5295 28.928 96.1855 29.6 95.7215 30.224C95.2575 30.832 94.6495 31.328 93.8975 31.712C93.1455 32.08 92.2415 32.264 91.1855 32.264ZM92.1935 29.864C93.1375 29.864 93.9535 29.704 94.6415 29.384C95.3295 29.064 95.8575 28.616 96.2255 28.04C96.5935 27.464 96.7775 26.8 96.7775 26.048C96.7775 25.232 96.5855 24.544 96.2015 23.984C95.8335 23.408 95.3055 22.976 94.6175 22.688C93.9455 22.384 93.1375 22.232 92.1935 22.232C90.8655 22.232 89.8335 22.584 89.0975 23.288C88.3615 23.976 87.9935 24.896 87.9935 26.048C87.9935 26.816 88.1695 27.488 88.5215 28.064C88.8735 28.624 89.3615 29.064 89.9855 29.384C90.6255 29.704 91.3615 29.864 92.1935 29.864ZM96.7775 20.072H99.8975V32H96.9935C96.9935 32 96.9695 31.848 96.9215 31.544C96.8895 31.224 96.8575 30.824 96.8255 30.344C96.7935 29.864 96.7775 29.392 96.7775 28.928V20.072ZM108.529 32.264C107.329 32.264 106.241 32.008 105.265 31.496C104.305 30.968 103.545 30.24 102.985 29.312C102.425 28.368 102.145 27.28 102.145 26.048C102.145 24.784 102.417 23.688 102.961 22.76C103.521 21.832 104.281 21.112 105.241 20.6C106.201 20.072 107.297 19.808 108.529 19.808C109.601 19.808 110.513 19.968 111.265 20.288C112.017 20.608 112.625 21.056 113.089 21.632C113.553 22.192 113.889 22.848 114.097 23.6C114.321 24.352 114.433 25.168 114.433 26.048C114.433 26.752 114.321 27.472 114.097 28.208C113.873 28.928 113.529 29.6 113.065 30.224C112.601 30.832 111.993 31.328 111.241 31.712C110.489 32.08 109.585 32.264 108.529 32.264ZM109.537 29.864C110.481 29.864 111.297 29.704 111.985 29.384C112.673 29.064 113.201 28.616 113.569 28.04C113.937 27.464 114.121 26.8 114.121 26.048C114.121 25.232 113.929 24.544 113.545 23.984C113.177 23.408 112.649 22.968 111.961 22.664C111.289 22.36 110.481 22.208 109.537 22.208C108.209 22.208 107.177 22.56 106.441 23.264C105.705 23.968 105.337 24.896 105.337 26.048C105.337 26.816 105.513 27.488 105.865 28.064C106.217 28.624 106.705 29.064 107.329 29.384C107.969 29.704 108.705 29.864 109.537 29.864ZM114.121 15.272H117.241V32H114.337C114.289 31.632 114.241 31.16 114.193 30.584C114.145 29.992 114.121 29.44 114.121 28.928V15.272ZM126.556 30.176C125.26 30.176 124.116 29.984 123.124 29.6C122.148 29.2 121.388 28.616 120.844 27.848C120.3 27.08 120.028 26.152 120.028 25.064C120.028 23.992 120.292 23.064 120.82 22.28C121.348 21.496 122.1 20.888 123.076 20.456C124.068 20.024 125.228 19.808 126.556 19.808C126.924 19.808 127.276 19.832 127.612 19.88C127.964 19.928 128.308 19.992 128.644 20.072L134.668 20.096V22.448C133.852 22.464 133.02 22.368 132.172 22.16C131.34 21.936 130.604 21.696 129.964 21.44L129.892 21.272C130.436 21.528 130.948 21.848 131.428 22.232C131.908 22.6 132.292 23.032 132.58 23.528C132.884 24.008 133.036 24.568 133.036 25.208C133.036 26.248 132.772 27.144 132.244 27.896C131.716 28.632 130.964 29.2 129.988 29.6C129.028 29.984 127.884 30.176 126.556 30.176ZM130.564 36.92V36.344C130.564 35.608 130.324 35.096 129.844 34.808C129.38 34.52 128.74 34.376 127.924 34.376H124.204C123.484 34.376 122.876 34.32 122.38 34.208C121.9 34.096 121.516 33.936 121.228 33.728C120.94 33.52 120.732 33.272 120.604 32.984C120.476 32.712 120.412 32.416 120.412 32.096C120.412 31.456 120.62 30.976 121.036 30.656C121.452 30.32 122.012 30.096 122.716 29.984C123.42 29.872 124.196 29.848 125.044 29.912L126.556 30.176C125.548 30.208 124.796 30.296 124.3 30.44C123.82 30.568 123.58 30.832 123.58 31.232C123.58 31.472 123.676 31.664 123.868 31.808C124.06 31.936 124.332 32 124.684 32H128.596C129.668 32 130.58 32.112 131.332 32.336C132.1 32.576 132.684 32.968 133.084 33.512C133.484 34.072 133.684 34.832 133.684 35.792V36.92H130.564ZM126.556 27.92C127.244 27.92 127.844 27.808 128.356 27.584C128.884 27.36 129.292 27.04 129.58 26.624C129.868 26.192 130.012 25.68 130.012 25.088C130.012 24.48 129.868 23.96 129.58 23.528C129.292 23.096 128.892 22.768 128.38 22.544C127.868 22.304 127.26 22.184 126.556 22.184C125.868 22.184 125.26 22.304 124.732 22.544C124.204 22.768 123.796 23.096 123.508 23.528C123.22 23.96 123.076 24.48 123.076 25.088C123.076 25.68 123.22 26.192 123.508 26.624C123.796 27.04 124.196 27.36 124.708 27.584C125.236 27.808 125.852 27.92 126.556 27.92ZM147.367 28.04H150.391C150.263 28.856 149.919 29.584 149.359 30.224C148.815 30.864 148.071 31.368 147.127 31.736C146.183 32.104 145.031 32.288 143.671 32.288C142.151 32.288 140.807 32.048 139.639 31.568C138.471 31.072 137.559 30.36 136.903 29.432C136.247 28.504 135.919 27.384 135.919 26.072C135.919 24.76 136.239 23.64 136.879 22.712C137.519 21.768 138.407 21.048 139.543 20.552C140.695 20.056 142.039 19.808 143.575 19.808C145.143 19.808 146.447 20.056 147.487 20.552C148.527 21.048 149.295 21.8 149.791 22.808C150.303 23.8 150.519 25.072 150.439 26.624H139.063C139.143 27.232 139.367 27.784 139.735 28.28C140.119 28.776 140.631 29.168 141.271 29.456C141.927 29.744 142.703 29.888 143.599 29.888C144.591 29.888 145.415 29.72 146.071 29.384C146.743 29.032 147.175 28.584 147.367 28.04ZM143.431 22.184C142.279 22.184 141.343 22.44 140.623 22.952C139.903 23.448 139.439 24.064 139.231 24.8H147.343C147.263 24 146.879 23.368 146.191 22.904C145.519 22.424 144.599 22.184 143.431 22.184ZM151.756 20.072H161.02V22.496H151.756V20.072ZM154.828 16.808H157.948V32H154.828V16.808ZM162.523 28.04H165.403C165.579 28.584 165.939 29.032 166.483 29.384C167.043 29.72 167.771 29.888 168.667 29.888C169.275 29.888 169.747 29.832 170.083 29.72C170.419 29.608 170.651 29.448 170.779 29.24C170.907 29.016 170.971 28.768 170.971 28.496C170.971 28.16 170.867 27.904 170.659 27.728C170.451 27.536 170.131 27.384 169.699 27.272C169.267 27.16 168.715 27.056 168.043 26.96C167.371 26.848 166.723 26.712 166.099 26.552C165.475 26.392 164.923 26.184 164.443 25.928C163.963 25.656 163.579 25.32 163.291 24.92C163.019 24.504 162.883 24 162.883 23.408C162.883 22.832 163.019 22.32 163.291 21.872C163.579 21.424 163.971 21.048 164.467 20.744C164.979 20.44 165.571 20.208 166.243 20.048C166.931 19.888 167.667 19.808 168.451 19.808C169.635 19.808 170.619 19.984 171.403 20.336C172.187 20.672 172.771 21.152 173.155 21.776C173.555 22.384 173.755 23.088 173.755 23.888H170.995C170.867 23.296 170.611 22.872 170.227 22.616C169.843 22.344 169.251 22.208 168.451 22.208C167.667 22.208 167.075 22.328 166.675 22.568C166.275 22.808 166.075 23.136 166.075 23.552C166.075 23.888 166.195 24.152 166.435 24.344C166.691 24.52 167.059 24.664 167.539 24.776C168.035 24.888 168.651 25.008 169.387 25.136C170.011 25.264 170.603 25.408 171.163 25.568C171.739 25.728 172.251 25.936 172.699 26.192C173.147 26.432 173.499 26.76 173.755 27.176C174.027 27.576 174.163 28.088 174.163 28.712C174.163 29.48 173.939 30.128 173.491 30.656C173.059 31.184 172.435 31.592 171.619 31.88C170.803 32.152 169.827 32.288 168.691 32.288C167.683 32.288 166.811 32.184 166.075 31.976C165.355 31.752 164.755 31.472 164.275 31.136C163.795 30.784 163.419 30.416 163.146 30.032C162.891 29.632 162.715 29.256 162.619 28.904C162.523 28.552 162.491 28.264 162.523 28.04Z" fill="white"/>
<path d="M180.173 29.264V32H176.549V29.264H180.173Z" fill="#FF6B35"/>
<defs>
<clipPath id="clip0_528_273">
<rect width="24" height="24" fill="white" transform="translate(12 12)"/>
</clipPath>
</defs>
</svg>
