<svg width="44" height="44" viewBox="0 0 44 44" fill="none" xmlns="http://www.w3.org/2000/svg">
<path fill-rule="evenodd" clip-rule="evenodd" d="M34.1351 28.7703C35.6548 30.8994 38.5272 33.1913 42.4376 35.0993C43.4539 35.5952 42.9955 37.132 41.8736 36.9901C33.6574 35.9509 28.3319 32.3524 25.4238 27.0012C24.3422 25.0109 23.6627 22.8924 23.3008 20.7299C23.0622 19.304 22.9991 18.2339 22.9991 16.998C22.9991 11.4752 27.4763 6.99805 32.9991 6.99805C38.522 6.99805 42.9991 11.4752 42.9991 16.998C42.9991 22.5209 38.4506 27.0012 33.2235 27.0012C33.4993 27.7583 33.5655 27.9723 34.1351 28.7703ZM12.1351 28.7703C13.6548 30.8994 16.5272 33.1913 20.4376 35.0993C21.4539 35.5952 20.9955 37.132 19.8736 36.9901C11.6574 35.9508 6.33193 32.3524 3.42381 27.0012C2.3422 25.0109 1.66265 22.8924 1.30076 20.7299C1.06215 19.304 0.999141 18.2339 0.999141 16.998C0.999141 11.4752 5.47629 6.99804 10.9991 6.99804C16.522 6.99804 20.9991 11.4752 20.9991 16.998C20.9991 22.5209 16.4506 27.0012 11.2235 27.0012C11.4993 27.7583 11.5655 27.9723 12.1351 28.7703Z" fill="#FF6B35"/>
</svg>
