<svg width="120" height="120" viewBox="0 0 120 120" fill="none" xmlns="http://www.w3.org/2000/svg">
<circle cx="60" cy="60" r="60" fill="#FF6B35"/>
<path d="M63.4416 17.4152L63.733 14.3814L61.0781 9L63.0513 9.17505L64.7408 12.9294L67.153 9.53894L69.0902 9.71081L65.4442 14.5216L65.1516 17.5669L63.4416 17.4152Z" fill="white"/>
<path d="M71.7972 18.9029C71.1588 18.7259 70.6531 18.4535 70.2802 18.0859C69.9073 17.7182 69.6682 17.2795 69.5629 16.7699C69.4599 16.2528 69.4983 15.6949 69.6781 15.0961C69.8601 14.49 70.1419 13.9956 70.5235 13.6129C70.9072 13.2229 71.361 12.9603 71.8849 12.8253C72.4164 12.6925 72.9899 12.7114 73.6053 12.882C74.0668 13.01 74.4484 13.1959 74.7502 13.4398C75.0596 13.6857 75.2936 13.9749 75.4522 14.3071C75.6184 14.6415 75.706 15.0021 75.7148 15.3889C75.7335 15.7705 75.678 16.1635 75.5482 16.5679C75.5172 16.6714 75.4833 16.7701 75.4468 16.8641C75.4102 16.9581 75.366 17.0499 75.3141 17.1396L71.1487 15.9844C71.1052 16.2126 71.1095 16.434 71.1617 16.6487C71.2139 16.8634 71.3195 17.0528 71.4785 17.217C71.6475 17.376 71.8781 17.496 72.1704 17.577C72.3627 17.6304 72.5452 17.661 72.7178 17.6688C72.8927 17.6692 73.0511 17.6411 73.1931 17.5844C73.3351 17.5277 73.447 17.4466 73.5287 17.3411L75.1209 17.7827C74.89 18.1911 74.5939 18.4974 74.2326 18.7015C73.879 18.9077 73.4899 19.024 73.0654 19.0504C72.643 19.0694 72.2203 19.0203 71.7972 18.9029ZM71.5096 14.9074L74.1519 15.6402C74.2042 15.4384 74.2058 15.2387 74.1569 15.0409C74.1179 14.8379 74.0177 14.658 73.8565 14.5012C73.7052 14.3391 73.4834 14.2176 73.1911 14.1365C72.8988 14.0554 72.636 14.0426 72.4027 14.098C72.1771 14.1556 71.9876 14.2592 71.8343 14.4089C71.691 14.5533 71.5827 14.7195 71.5096 14.9074Z" fill="white"/>
<path d="M78.96 21.4324C78.7033 21.3064 78.4701 21.1531 78.2605 20.9725C78.0616 20.7885 77.9059 20.5825 77.7933 20.3545C77.6807 20.1265 77.6256 19.8835 77.6278 19.6254C77.6301 19.3674 77.7041 19.1013 77.8497 18.8272C78.0463 18.4572 78.2813 18.201 78.5547 18.0587C78.8317 17.9096 79.1331 17.8415 79.4588 17.8545C79.7845 17.8674 80.1294 17.9373 80.4935 18.0642C80.8647 18.1945 81.2358 18.3506 81.6065 18.5326L82.4194 18.9315C82.525 18.7328 82.5786 18.5388 82.5803 18.3495C82.5927 18.157 82.5459 17.9828 82.4399 17.8271C82.3375 17.6645 82.1686 17.5255 81.9333 17.4101C81.7836 17.3366 81.6265 17.2854 81.462 17.2566C81.3083 17.2243 81.1669 17.2198 81.0378 17.2428C80.9087 17.2658 80.8008 17.3252 80.714 17.4208L79.1953 16.6755C79.3982 16.395 79.6346 16.1871 79.9043 16.0516C80.1777 15.9093 80.4685 15.8274 80.7766 15.8058C81.0847 15.7842 81.3942 15.8108 81.705 15.8856C82.0267 15.9571 82.3372 16.0662 82.6367 16.2132C83.4567 16.6156 83.9426 17.1391 84.0945 17.7838C84.25 18.4216 84.1093 19.1517 83.6724 19.9739L82.1213 22.893L80.7737 22.2317L81.1237 21.5222C80.818 21.6746 80.5219 21.7496 80.2355 21.7473C79.9562 21.7485 79.7059 21.712 79.4845 21.6379C79.2632 21.5639 79.0884 21.4954 78.96 21.4324ZM79.9085 20.4594C80.158 20.5819 80.4117 20.6459 80.6695 20.6514C80.9272 20.657 81.1604 20.6073 81.369 20.5023C81.5776 20.3973 81.7365 20.2421 81.8457 20.0365L81.9167 19.9029L80.8899 19.399C80.7402 19.3256 80.5904 19.2607 80.4405 19.2044C80.2977 19.1516 80.1584 19.1178 80.0225 19.1029C79.8973 19.0847 79.7808 19.101 79.6729 19.1517C79.5651 19.2024 79.4747 19.2963 79.4019 19.4334C79.3291 19.5704 79.3029 19.7044 79.3232 19.8353C79.3543 19.9629 79.4213 20.0822 79.5241 20.1931C79.6306 20.2972 79.7587 20.386 79.9085 20.4594Z" fill="white"/>
<path d="M84.4839 24.2939L88.2252 19.3885L89.4456 20.2481L89.0855 20.8959C89.3567 20.8007 89.6085 20.7634 89.8409 20.784C90.0781 20.7984 90.2956 20.8515 90.4937 20.9433C90.6964 21.0289 90.8882 21.1353 91.069 21.2627C91.1529 21.3218 91.2281 21.3795 91.2944 21.4357C91.3654 21.4858 91.417 21.5221 91.4493 21.5449L90.4909 22.8015L90.1713 22.5764C89.8678 22.3626 89.5652 22.2258 89.2634 22.1659C88.9617 22.106 88.669 22.1383 88.3854 22.2629C88.1083 22.392 87.8443 22.621 87.5934 22.9499L85.8399 25.249L84.4839 24.2939Z" fill="white"/>
<path d="M90.9596 29.4726C90.7502 29.2712 90.5578 29.0427 90.3824 28.7869C90.207 28.5312 90.0797 28.2618 90.0006 27.9789C89.9271 27.6905 89.9187 27.394 89.9754 27.0894C90.0378 26.7793 90.1908 26.4693 90.4343 26.1593L91.6397 27.3185C91.5718 27.449 91.5434 27.5905 91.5547 27.7428C91.5716 27.9006 91.6196 28.0502 91.6988 28.1917C91.7837 28.3386 91.8856 28.4692 92.0044 28.5835C92.0836 28.6597 92.1685 28.7304 92.2591 28.7957C92.3496 28.8611 92.4459 28.9101 92.5477 28.9427C92.6496 28.9754 92.7459 28.9863 92.8365 28.9755C92.9327 28.9592 93.0233 28.9103 93.1082 28.8287C93.1989 28.7417 93.2414 28.6465 93.2357 28.5431C93.2301 28.4397 93.1905 28.3255 93.117 28.2003C93.0491 28.0697 92.9642 27.9283 92.8624 27.7759C92.6813 27.5038 92.489 27.21 92.2853 26.8944C92.0816 26.5787 91.943 26.2713 91.8695 25.9721C91.8469 25.8415 91.8385 25.7136 91.8442 25.5885C91.8499 25.4634 91.8754 25.341 91.9208 25.2213C91.9661 25.1017 92.0227 24.9874 92.0907 24.8786C92.1644 24.7644 92.255 24.6556 92.3626 24.5523C92.6061 24.3185 92.8637 24.1689 93.1355 24.1038C93.4186 24.0386 93.7016 24.0387 93.9847 24.1041C94.2677 24.1694 94.5394 24.2838 94.7998 24.4471C95.0658 24.6049 95.312 24.7927 95.5383 25.0104C95.8439 25.3043 96.0759 25.6254 96.2343 25.9736C96.3983 26.3164 96.4605 26.67 96.4207 27.0345C96.3866 27.3936 96.2251 27.7499 95.9363 28.1034L94.7988 27.0095C94.9008 26.8681 94.9235 26.6994 94.8669 26.5036C94.8161 26.3022 94.6944 26.1091 94.502 25.924C94.4341 25.8587 94.3549 25.7934 94.2643 25.7281C94.1794 25.6682 94.0917 25.6219 94.0011 25.5893C93.9105 25.5566 93.82 25.5457 93.7294 25.5565C93.6445 25.5619 93.5624 25.6027 93.4831 25.6789C93.4208 25.7387 93.3811 25.8094 93.3641 25.891C93.3528 25.978 93.364 26.0705 93.398 26.1685C93.4376 26.2718 93.4941 26.3861 93.5677 26.5113C93.7148 26.7398 93.8647 26.9656 94.0175 27.1887C94.1816 27.4118 94.3202 27.6159 94.4334 27.8009C94.5805 28.0186 94.6851 28.2444 94.7473 28.4784C94.8151 28.7178 94.8179 28.9598 94.7555 29.2046C94.7045 29.4494 94.5544 29.6915 94.3052 29.9308C94.022 30.2027 93.7304 30.374 93.4303 30.4446C93.1359 30.5098 92.8387 30.5015 92.5387 30.4198C92.2443 30.3435 91.9613 30.2183 91.6897 30.0441C91.4236 29.8754 91.1803 29.6849 90.9596 29.4726Z" fill="white"/>
<path d="M97.6228 37.0326L105.125 33.1875L108.007 38.3808L106.598 39.1031L104.524 35.366L102.828 36.2349L104.609 39.4426L103.252 40.1377L101.472 36.9301L99.8297 37.7719L101.904 41.509L100.505 42.2259L97.6228 37.0326Z" fill="white"/>
<path d="M101.382 44.0042L105.121 45.1179L107.462 42.3102L108.039 44.1077L106.502 45.8194L108.768 46.3794L109.328 48.1217L105.709 47.069L103.323 50.0474L102.745 48.2499L104.323 46.393L101.935 45.7245L101.382 44.0042Z" fill="white"/>
<path d="M101.414 52.0446L110.057 51.1286L110.229 52.6313L109.45 52.7951C109.789 53.0069 110.048 53.262 110.227 53.5604C110.407 53.8664 110.519 54.2106 110.563 54.5929C110.631 55.1894 110.545 55.6979 110.303 56.1183C110.061 56.5387 109.705 56.8706 109.233 57.1141C108.771 57.3643 108.237 57.5215 107.632 57.5856C107.012 57.6514 106.443 57.6072 105.926 57.4531C105.417 57.3057 104.997 57.0445 104.664 56.6696C104.339 56.2938 104.141 55.8038 104.072 55.1996C104.042 54.9396 104.046 54.6915 104.083 54.4554C104.121 54.2192 104.181 54.0077 104.264 53.8208C104.355 53.6331 104.462 53.4709 104.583 53.3342L101.599 53.6505L101.414 52.0446ZM105.545 54.7649C105.586 55.1244 105.702 55.3985 105.893 55.5872C106.083 55.776 106.311 55.8989 106.575 55.9561C106.848 56.0124 107.123 56.0257 107.401 55.9962C107.704 55.9642 107.985 55.8879 108.245 55.7675C108.505 55.647 108.702 55.4713 108.837 55.2403C108.98 55.0161 109.032 54.7243 108.99 54.3649C108.953 54.0437 108.839 53.7811 108.646 53.577C108.462 53.3721 108.231 53.2262 107.956 53.1393C107.68 53.0524 107.391 53.025 107.088 53.0571C106.786 53.0891 106.51 53.1726 106.259 53.3075C106.01 53.45 105.818 53.6406 105.685 53.8793C105.552 54.1256 105.505 54.4208 105.545 54.7649Z" fill="white"/>
<path d="M104.232 63.215C104.289 62.5788 104.47 62.0494 104.773 61.6269C105.077 61.2044 105.479 60.8943 105.979 60.6968C106.487 60.4999 107.064 60.4284 107.71 60.4825C108.364 60.5372 108.923 60.7076 109.387 60.9936C109.86 61.2802 110.215 61.6575 110.454 62.1254C110.692 62.601 110.784 63.1454 110.728 63.7586C110.686 64.2185 110.57 64.6142 110.379 64.9458C110.188 65.285 109.938 65.5614 109.629 65.775C109.32 65.9962 108.969 66.1483 108.575 66.2313C108.189 66.3225 107.777 66.346 107.339 66.3016C107.228 66.2923 107.12 66.2794 107.017 66.2631C106.914 66.2467 106.812 66.2227 106.71 66.1911L107.087 62.0406C106.845 62.0435 106.62 62.0903 106.411 62.181C106.202 62.2716 106.029 62.4077 105.892 62.5893C105.762 62.7792 105.684 63.0198 105.657 63.3111C105.64 63.5027 105.644 63.6807 105.669 63.845C105.703 64.0099 105.762 64.1539 105.847 64.2769C105.933 64.3999 106.037 64.4897 106.16 64.5464L106.017 66.133C105.555 65.994 105.185 65.7738 104.907 65.4725C104.628 65.1789 104.435 64.8344 104.326 64.4392C104.225 64.0446 104.193 63.6365 104.232 63.215ZM108.256 62.1732L108.017 64.806C108.233 64.8164 108.438 64.7794 108.63 64.6951C108.83 64.6192 108.994 64.49 109.123 64.3078C109.26 64.1338 109.341 63.9012 109.367 63.61C109.394 63.3187 109.356 63.0684 109.255 62.8591C109.152 62.6575 109.01 62.4988 108.828 62.3832C108.652 62.2759 108.462 62.2059 108.256 62.1732Z" fill="white"/>
<path d="M103.601 68.5554L109.731 70.0679L109.355 71.4764L108.595 71.3961C108.788 71.6026 108.918 71.8133 108.984 72.0283C109.059 72.2452 109.088 72.4591 109.073 72.6699C109.066 72.8825 109.035 73.0932 108.979 73.3019C108.953 73.3987 108.925 73.4872 108.895 73.5673C108.874 73.6492 108.858 73.7089 108.848 73.7461L107.277 73.3587L107.376 72.9898C107.47 72.6395 107.489 72.3187 107.435 72.0272C107.38 71.7358 107.24 71.4868 107.014 71.2801C106.787 71.0809 106.467 70.9306 106.056 70.8292L103.183 70.1203L103.601 68.5554Z" fill="white"/>
<path d="M101.965 74.1222L107.873 76.3031L107.27 77.8113L101.362 75.6305L101.965 74.1222ZM108.165 77.2765C108.277 76.9964 108.454 76.8019 108.695 76.693C108.943 76.5868 109.205 76.5848 109.482 76.6869C109.773 76.7944 109.973 76.9711 110.08 77.2169C110.188 77.4627 110.187 77.722 110.078 77.9949C109.978 78.2463 109.802 78.4287 109.551 78.542C109.304 78.6653 109.035 78.6731 108.744 78.5655C108.46 78.4607 108.264 78.2854 108.156 78.0396C108.053 77.8038 108.056 77.5494 108.165 77.2765Z" fill="white"/>
<path d="M98.9936 80.3259C99.3182 79.7686 99.7091 79.3573 100.166 79.0919C100.624 78.8265 101.123 78.7024 101.663 78.7198C102.21 78.7408 102.767 78.9035 103.333 79.2079C103.906 79.516 104.343 79.8921 104.644 80.3361C104.952 80.7839 105.115 81.2683 105.133 81.7892C105.146 82.3168 104.997 82.8492 104.684 83.3863C104.45 83.7891 104.174 84.104 103.859 84.331C103.539 84.5647 103.193 84.718 102.82 84.7909C102.444 84.8704 102.058 84.8704 101.664 84.7908C101.273 84.7216 100.888 84.5803 100.507 84.3669C100.41 84.3143 100.317 84.2602 100.23 84.2047C100.143 84.1491 100.06 84.0869 99.9813 84.0179L102.099 80.3823C101.877 80.2897 101.652 80.2434 101.422 80.2435C101.193 80.2436 100.977 80.2993 100.775 80.4108C100.575 80.5328 100.401 80.7213 100.252 80.9765C100.155 81.1443 100.082 81.3081 100.035 81.4679C99.9949 81.6314 99.9874 81.7861 100.013 81.9319C100.038 82.0777 100.094 82.2008 100.183 82.3012L99.3735 83.691C99.0121 83.382 98.769 83.0353 98.6443 82.6508C98.5157 82.273 98.4862 81.8825 98.556 81.4792C98.6327 81.0796 98.7786 80.6952 98.9936 80.3259ZM103.108 80.9648L101.765 83.2711C101.957 83.3658 102.159 83.4127 102.371 83.4119C102.586 83.4215 102.791 83.3687 102.986 83.2534C103.185 83.1487 103.358 82.9687 103.507 82.7136C103.656 82.4584 103.728 82.2154 103.725 81.9845C103.718 81.7603 103.656 81.5595 103.539 81.382C103.426 81.215 103.282 81.076 103.108 80.9648Z" fill="white"/>
<path d="M96.1596 85.0544L100.98 88.9952L99.9608 90.1467L99.3484 89.7521C99.3989 90.0156 99.3973 90.2668 99.3435 90.5057C99.2906 90.7554 99.2072 90.9802 99.0934 91.1801C98.9743 91.3858 98.8526 91.5589 98.7281 91.6996C98.3338 92.145 97.9271 92.4085 97.508 92.4901C97.0837 92.5776 96.6541 92.5345 96.2192 92.3608C95.7853 92.1979 95.361 91.947 94.9463 91.608L92.2845 89.4319L93.3739 88.2013L95.871 90.2428C96.0174 90.3624 96.1741 90.4703 96.3412 90.5665C96.5083 90.6627 96.6814 90.7285 96.8604 90.7637C97.0343 90.8048 97.2071 90.7996 97.3788 90.7481C97.5505 90.6966 97.7168 90.58 97.8776 90.3983C98.0851 90.1639 98.198 89.9177 98.2161 89.6598C98.2342 89.4019 98.1733 89.1501 98.0334 88.9044C97.8935 88.6587 97.6985 88.4337 97.4485 88.2293L95.0702 86.285L96.1596 85.0544Z" fill="white"/>
<path d="M88.061 92.9987C88.5675 92.6094 89.0845 92.3746 89.6121 92.2941C90.1335 92.2184 90.6381 92.2887 91.1257 92.5051C91.6183 92.7274 92.0697 93.0849 92.4797 93.5775C92.8948 94.0762 93.158 94.5833 93.2692 95.0988C93.3855 95.6203 93.3473 96.1225 93.1547 96.6055C92.9559 97.0934 92.597 97.5367 92.0781 97.9356C91.678 98.2432 91.2641 98.448 90.8365 98.5501C90.4088 98.6522 89.9937 98.6462 89.5911 98.532C89.1823 98.4227 88.8047 98.1908 88.4584 97.8363L89.7431 96.8487C89.9745 97.0157 90.2114 97.0848 90.454 97.056C90.6903 97.0319 90.9178 96.9358 91.1367 96.7676C91.418 96.5514 91.5881 96.3123 91.6469 96.0503C91.6994 95.7932 91.6781 95.5336 91.5831 95.2717C91.4819 95.0146 91.3462 94.7838 91.1762 94.5796C90.9911 94.3573 90.7786 94.1758 90.5385 94.0352C90.3035 93.9006 90.0522 93.8327 89.7846 93.8315C89.5158 93.8411 89.2469 93.9492 88.9781 94.1559C88.753 94.3289 88.5961 94.5284 88.5073 94.7542C88.4235 94.9861 88.4441 95.2265 88.5692 95.4752L87.2562 96.4844C86.9624 96.0699 86.8143 95.6517 86.8118 95.23C86.8093 94.8082 86.9188 94.4039 87.1401 94.017C87.3602 93.6409 87.6672 93.3015 88.061 92.9987Z" fill="white"/>
<path d="M81.1393 97.4707C81.7272 97.1729 82.2881 97.0322 82.822 97.0487C83.356 97.0652 83.8448 97.222 84.2884 97.5191C84.7357 97.823 85.1105 98.2507 85.413 98.8019C85.7191 99.36 85.8728 99.904 85.8739 100.434C85.8788 100.971 85.7411 101.462 85.4611 101.909C85.1739 102.359 84.747 102.727 84.1804 103.014C83.7555 103.229 83.3464 103.35 82.953 103.375C82.5525 103.404 82.1753 103.352 81.8214 103.218C81.4603 103.088 81.1371 102.886 80.8516 102.613C80.5628 102.351 80.3193 102.031 80.121 101.653C80.0687 101.557 80.0219 101.464 79.9804 101.372C79.939 101.28 79.9046 101.184 79.8773 101.085L83.7123 99.1417C83.5791 98.9483 83.4162 98.7916 83.2237 98.6717C83.0312 98.5518 82.8184 98.4856 82.5854 98.4732C82.3489 98.4712 82.0962 98.5384 81.8271 98.6748C81.65 98.7645 81.4964 98.864 81.3664 98.9734C81.2401 99.0896 81.1462 99.2154 81.0848 99.3509C81.0233 99.4864 81.0012 99.6193 81.0185 99.7498L79.5525 100.492C79.4242 100.044 79.4167 99.6263 79.5297 99.2385C79.6357 98.8543 79.8322 98.5112 80.1191 98.2093C80.4097 97.9142 80.7498 97.668 81.1393 97.4707ZM84.2293 100.158L81.7966 101.391C81.9044 101.571 82.0474 101.716 82.2253 101.826C82.3999 101.946 82.6019 102.009 82.8312 102.015C83.0572 102.031 83.3047 101.97 83.5738 101.834C83.843 101.698 84.0416 101.532 84.1697 101.337C84.2908 101.145 84.3525 100.944 84.355 100.734C84.3541 100.534 84.3122 100.342 84.2293 100.158Z" fill="white"/>
<path d="M71.0256 106.082L72.314 106.65L71.6934 107.634L72.8945 107.63L72.7457 108.98L71.5729 108.72L71.9566 109.81L70.5575 110.09L70.4561 108.943L69.5009 109.63L68.7915 108.451L69.8946 107.995L68.9281 107.328L69.8734 106.313L70.6509 107.183L71.0256 106.082Z" fill="white"/>
<path d="M57.6795 102.644L57.4673 105.684L60.2617 111L58.2846 110.873L56.4976 107.16L54.1747 110.608L52.2336 110.482L55.753 105.585L55.966 102.534L57.6795 102.644Z" fill="white"/>
<path d="M49.2912 101.363C49.9342 101.524 50.4469 101.784 50.8294 102.143C51.2119 102.501 51.4625 102.934 51.5812 103.441C51.698 103.955 51.6744 104.514 51.5105 105.117C51.3445 105.727 51.0759 106.228 50.7046 106.62C50.3313 107.02 49.8846 107.293 49.3645 107.441C48.8366 107.587 48.2628 107.582 47.6431 107.426C47.1784 107.31 46.7919 107.133 46.4838 106.897C46.168 106.658 45.9264 106.375 45.7591 106.047C45.5841 105.717 45.487 105.358 45.4679 104.972C45.4391 104.591 45.4842 104.197 45.6032 103.789C45.6316 103.685 45.6628 103.585 45.6968 103.49C45.7309 103.396 45.7727 103.303 45.8222 103.212L50.0168 104.265C50.0542 104.036 50.044 103.814 49.9862 103.601C49.9283 103.388 49.8177 103.201 49.6544 103.041C49.4814 102.886 49.2476 102.772 48.9533 102.698C48.7596 102.649 48.5764 102.623 48.4036 102.619C48.2288 102.623 48.0712 102.655 47.9307 102.715C47.7902 102.775 47.6806 102.859 47.6017 102.967L45.9982 102.564C46.2183 102.15 46.5062 101.837 46.862 101.624C47.21 101.409 47.5959 101.283 48.0196 101.247C48.4413 101.217 48.8652 101.256 49.2912 101.363ZM49.6845 105.35L47.0236 104.682C46.9768 104.885 46.9804 105.085 47.0346 105.281C47.0789 105.483 47.1838 105.661 47.3491 105.814C47.5047 105.972 47.7296 106.088 48.024 106.162C48.3184 106.236 48.5814 106.242 48.8132 106.181C49.0372 106.118 49.2238 106.01 49.3731 105.857C49.5126 105.709 49.6164 105.54 49.6845 105.35Z" fill="white"/>
<path d="M42.0588 98.999C42.3188 99.1186 42.5559 99.2662 42.7703 99.4417C42.9739 99.6208 43.135 99.8229 43.2536 100.048C43.3721 100.273 43.4336 100.515 43.4382 100.773C43.4427 101.031 43.3758 101.299 43.2374 101.576C43.0506 101.951 42.8224 102.213 42.5529 102.362C42.2799 102.518 41.9804 102.593 41.6544 102.588C41.3285 102.583 40.9818 102.521 40.6145 102.403C40.24 102.282 39.865 102.135 39.4895 101.962L38.6664 101.583C38.5661 101.784 38.5176 101.98 38.5209 102.169C38.5135 102.362 38.5649 102.535 38.675 102.688C38.7817 102.848 38.9541 102.983 39.1924 103.092C39.344 103.162 39.5024 103.209 39.6676 103.234C39.8221 103.263 39.9635 103.264 40.092 103.238C40.2204 103.212 40.3268 103.15 40.411 103.052L41.9489 103.76C41.7534 104.045 41.5226 104.259 41.2565 104.401C40.987 104.55 40.6985 104.639 40.391 104.668C40.0836 104.697 39.7735 104.678 39.4607 104.611C39.1373 104.547 38.824 104.446 38.5208 104.306C37.6904 103.924 37.1909 103.412 37.0221 102.771C36.8498 102.137 36.9713 101.404 37.3864 100.572L38.8601 97.6157L40.2247 98.244L39.8935 98.9617C40.1951 98.802 40.4891 98.7198 40.7755 98.7152C41.0546 98.7072 41.3058 98.7376 41.5291 98.8062C41.7523 98.8749 41.9289 98.9391 42.0588 98.999ZM41.1363 99.9947C40.8836 99.8783 40.6283 99.8205 40.3705 99.8212C40.1127 99.822 39.8809 99.8773 39.6751 99.9873C39.4694 100.097 39.3146 100.256 39.2108 100.465L39.1434 100.6L40.1831 101.079C40.3347 101.148 40.4862 101.21 40.6375 101.262C40.7816 101.312 40.9218 101.342 41.0581 101.354C41.1837 101.369 41.2997 101.35 41.4062 101.296C41.5127 101.243 41.6005 101.147 41.6697 101.008C41.7389 100.869 41.7616 100.735 41.7378 100.604C41.7034 100.478 41.6333 100.36 41.5275 100.252C41.4183 100.15 41.2879 100.064 41.1363 99.9947Z" fill="white"/>
<path d="M36.4627 96.2799L32.8507 101.274L31.6082 100.444L31.9512 99.7879C31.6827 99.8896 31.432 99.933 31.1991 99.918C30.9616 99.9093 30.7427 99.8614 30.5423 99.7745C30.3374 99.6938 30.1429 99.592 29.9588 99.4691C29.8734 99.412 29.7968 99.3561 29.729 99.3015C29.6567 99.2532 29.6041 99.2181 29.5712 99.1961L30.4965 97.9168L30.8219 98.1341C31.1309 98.3405 31.437 98.47 31.7402 98.5226C32.0434 98.5752 32.3352 98.5358 32.6154 98.4044C32.8891 98.2687 33.147 98.0334 33.3892 97.6985L35.0821 95.3578L36.4627 96.2799Z" fill="white"/>
<path d="M29.8515 91.2554C30.066 91.4517 30.2643 91.6756 30.4463 91.927C30.6283 92.1785 30.7625 92.4447 30.849 92.7256C30.9299 93.0122 30.946 93.3084 30.8972 93.6143C30.8429 93.9257 30.698 94.2394 30.4626 94.5551L29.2275 93.4252C29.292 93.2931 29.3167 93.151 29.3015 92.999C29.2805 92.8417 29.2286 92.6932 29.1457 92.5537C29.057 92.4089 28.9518 92.2807 28.8301 92.1693C28.7489 92.0951 28.6622 92.0264 28.57 91.9632C28.4777 91.9001 28.3803 91.8535 28.2776 91.8232C28.1749 91.793 28.0784 91.7844 27.9881 91.7974C27.8923 91.816 27.803 91.8671 27.7202 91.9507C27.6319 92.0399 27.5919 92.136 27.6002 92.2392C27.6085 92.3424 27.651 92.4557 27.7278 92.5791C27.799 92.708 27.8876 92.8474 27.9933 92.9973C28.1814 93.2649 28.3813 93.554 28.5932 93.8647C28.805 94.1753 28.9515 94.4793 29.0327 94.7767C29.0587 94.9067 29.0705 95.0343 29.068 95.1595C29.0656 95.2847 29.0432 95.4077 29.001 95.5284C28.9588 95.6492 28.9051 95.7647 28.84 95.8751C28.7694 95.991 28.6816 96.102 28.5767 96.2078C28.3394 96.4475 28.0857 96.6031 27.8157 96.6748C27.5344 96.7468 27.2514 96.7535 26.9668 96.6949C26.6821 96.6363 26.4075 96.5285 26.143 96.3715C25.873 96.2201 25.622 96.0383 25.3901 95.8261C25.0769 95.5396 24.8367 95.2242 24.6693 94.8799C24.4964 94.5411 24.4251 94.1891 24.4554 93.8238C24.4801 93.464 24.6323 93.104 24.9119 92.7436L26.0774 93.8099C25.9792 93.9537 25.9609 94.1228 26.0225 94.3173C26.0786 94.5173 26.2052 94.7075 26.4023 94.8879C26.4719 94.9515 26.5528 95.0149 26.645 95.0781C26.7315 95.1359 26.8204 95.18 26.9118 95.2105C27.0032 95.241 27.094 95.2497 27.1843 95.2367C27.269 95.2293 27.35 95.1865 27.4273 95.1085C27.488 95.0472 27.5258 94.9756 27.5407 94.8936C27.5498 94.8063 27.5361 94.7141 27.4997 94.617C27.4574 94.5146 27.3979 94.4018 27.3211 94.2784C27.1681 94.0535 27.0124 93.8313 26.8538 93.6119C26.684 93.3928 26.5401 93.1922 26.4222 93.0099C26.2695 92.7959 26.159 92.5726 26.0908 92.3402C26.0167 92.1025 26.0077 91.8606 26.0637 91.6144C26.1083 91.3684 26.2521 91.1229 26.495 90.8777C26.771 90.599 27.0581 90.4208 27.3562 90.343C27.6489 90.2708 27.9462 90.2719 28.2482 90.3464C28.5445 90.4156 28.8307 90.534 29.1068 90.7016C29.3771 90.8639 29.6253 91.0485 29.8515 91.2554Z" fill="white"/>
<path d="M22.9928 83.8651L15.5938 87.8906L12.5763 82.7687L13.9663 82.0125L16.1376 85.6983L17.8097 84.7886L15.946 81.625L17.2837 80.8973L19.1474 84.0608L20.7673 83.1795L18.5959 79.4938L19.9754 78.7432L22.9928 83.8651Z" fill="white"/>
<path d="M19.053 76.9742L15.2865 75.9518L13.0202 78.8156L12.3959 77.0327L13.8869 75.2842L11.6068 74.7795L11.0016 73.0513L14.6465 74.0157L16.954 70.9802L17.5783 72.7631L16.0497 74.6578L18.4555 75.2679L19.053 76.9742Z" fill="white"/>
<path d="M18.8049 68.9329L10.1891 70.0563L9.97761 68.5582L10.7517 68.3758C10.4079 68.1722 10.1425 67.9234 9.95554 67.6294C9.76753 67.3278 9.64661 66.9864 9.59279 66.6052C9.50883 66.0106 9.5822 65.5002 9.8129 65.0741C10.0436 64.6481 10.3914 64.3077 10.8564 64.0529C11.3124 63.7916 11.8418 63.6216 12.4447 63.543C13.0636 63.4623 13.6334 63.4929 14.1544 63.6346C14.6663 63.7697 15.0936 64.0207 15.4362 64.3875C15.771 64.7554 15.9808 65.2404 16.0659 65.8427C16.1025 66.1019 16.1052 66.35 16.074 66.587C16.0428 66.824 15.9881 67.0369 15.9097 67.2257C15.8234 67.4156 15.7214 67.5803 15.6038 67.7198L18.5788 67.3319L18.8049 68.9329ZM14.6052 66.3127C14.5546 65.9544 14.4315 65.6831 14.2358 65.499C14.0402 65.3149 13.8095 65.1975 13.5438 65.1467C13.2701 65.097 12.9945 65.0902 12.7168 65.1264C12.4153 65.1657 12.1362 65.2487 11.8793 65.3754C11.6225 65.502 11.4299 65.6824 11.3013 65.9166C11.1638 66.1442 11.1203 66.4371 11.1709 66.7954C11.2161 67.1156 11.3376 67.3754 11.5355 67.5748C11.7253 67.7752 11.9593 67.9155 12.2372 67.9957C12.5152 68.076 12.8049 68.0964 13.1063 68.0571C13.4078 68.0178 13.6819 67.9277 13.9286 67.7868C14.1743 67.6383 14.3609 67.4432 14.4883 67.2014C14.6147 66.952 14.6537 66.6558 14.6052 66.3127Z" fill="white"/>
<path d="M15.7021 57.8493C15.661 58.4866 15.4943 59.0202 15.202 59.4499C14.9096 59.8796 14.516 60.1992 14.0213 60.4088C13.5185 60.6179 12.9435 60.7032 12.2962 60.6647C11.641 60.6257 11.0775 60.4689 10.6059 60.1942C10.1263 59.919 9.76098 59.5504 9.50997 59.0884C9.25945 58.6187 9.15397 58.0767 9.19351 57.4624C9.22316 57.0016 9.32902 56.6032 9.51108 56.2672C9.69363 55.9234 9.93641 55.6411 10.2394 55.4201C10.5429 55.1915 10.8901 55.031 11.2811 54.9386C11.6646 54.838 12.0758 54.8047 12.5148 54.8385C12.6267 54.8451 12.7343 54.8554 12.8377 54.8692C12.9411 54.8831 13.044 54.9046 13.1464 54.9338L12.8787 59.0921C13.1199 59.0833 13.3439 59.0311 13.5506 58.9355C13.7573 58.8398 13.9267 58.6996 14.059 58.5147C14.1837 58.3217 14.2554 58.0793 14.2742 57.7875C14.2866 57.5955 14.278 57.4177 14.2484 57.2541C14.2108 57.09 14.1478 56.9475 14.0593 56.8266C13.9708 56.7057 13.8642 56.6184 13.7393 56.5647L13.8416 54.9752C14.3066 55.103 14.6821 55.3142 14.9679 55.6087C15.2543 55.8955 15.457 56.2352 15.5761 56.6277C15.6873 57.0197 15.7293 57.4269 15.7021 57.8493ZM11.7063 58.9877L11.8761 56.3499C11.6598 56.3448 11.4566 56.3867 11.2664 56.4756C11.0687 56.5563 10.9077 56.6894 10.7835 56.8747C10.6518 57.0519 10.5765 57.2863 10.5577 57.5782C10.5389 57.87 10.5831 58.1193 10.6901 58.326C10.7976 58.5251 10.944 58.6803 11.1294 58.7915C11.3072 58.8946 11.4995 58.96 11.7063 58.9877Z" fill="white"/>
<path d="M16.1954 52.5022L10.0272 51.1404L10.366 49.7232L11.1276 49.7848C10.9294 49.5831 10.7941 49.3757 10.7219 49.1624C10.6419 48.9473 10.6065 48.7343 10.6159 48.5232C10.6175 48.3104 10.6434 48.0991 10.6936 47.8891C10.7169 47.7916 10.7423 47.7025 10.7698 47.6217C10.7895 47.5393 10.8039 47.4793 10.8128 47.4418L12.3929 47.7906L12.3042 48.1618C12.2199 48.5142 12.2089 48.8354 12.271 49.1254C12.3331 49.4154 12.4798 49.661 12.711 49.862C12.944 50.0556 13.2673 50.198 13.6809 50.2893L16.5718 50.9275L16.1954 52.5022Z" fill="white"/>
<path d="M17.6835 46.8822L11.7202 44.8451L12.2834 43.3227L18.2467 45.3598L17.6835 46.8822ZM11.4021 43.879C11.2975 44.1617 11.1263 44.3605 10.8884 44.4752C10.643 44.5873 10.3808 44.5957 10.1016 44.5004C9.80743 44.3999 9.60333 44.2281 9.48932 43.985C9.37531 43.7419 9.36926 43.4826 9.47116 43.2071C9.56502 42.9534 9.73599 42.7669 9.98408 42.6475C10.2273 42.5183 10.496 42.5039 10.7902 42.6044C11.0769 42.7023 11.2772 42.8728 11.3912 43.1159C11.5004 43.3492 11.504 43.6035 11.4021 43.879Z" fill="white"/>
<path d="M20.4842 40.6241C20.1743 41.189 19.7943 41.6097 19.3441 41.8861C18.8939 42.1625 18.3984 42.2986 17.8577 42.2944C17.31 42.2866 16.7493 42.1374 16.1756 41.8468C15.5948 41.5527 15.1481 41.1873 14.8355 40.7507C14.5158 40.3105 14.3402 39.8302 14.3088 39.3099C14.2812 38.7828 14.4166 38.247 14.7152 37.7025C14.9392 37.2941 15.206 36.9726 15.5156 36.738C15.829 36.4967 16.171 36.3351 16.5417 36.2532C16.9161 36.1645 17.3013 36.1552 17.6973 36.2253C18.0899 36.285 18.4791 36.4169 18.8649 36.621C18.9641 36.6712 19.0578 36.723 19.1462 36.7765C19.2345 36.8299 19.3191 36.8902 19.4 36.9572L17.3788 40.6429C17.6025 40.7301 17.829 40.7709 18.0583 40.7653C18.2876 40.7597 18.502 40.6987 18.7016 40.5823C18.8978 40.4556 19.0668 40.2629 19.2087 40.0042C19.302 39.8341 19.3701 39.6685 19.4131 39.5077C19.449 39.3432 19.4524 39.1884 19.4234 39.0433C19.3944 38.8981 19.3345 38.7764 19.2435 38.6782L20.0162 37.2693C20.3856 37.5694 20.6376 37.9101 20.7724 38.2915C20.9109 38.666 20.9506 39.0557 20.8914 39.4606C20.8252 39.8619 20.6894 40.2497 20.4842 40.6241ZM16.3544 40.085L17.6366 37.747C17.4416 37.6569 17.2384 37.6149 17.027 37.6209C16.8122 37.6165 16.6086 37.6742 16.4161 37.7942C16.2203 37.9037 16.0514 38.0878 15.9096 38.3465C15.7677 38.6051 15.7014 38.8498 15.7106 39.0806C15.7235 39.3046 15.7907 39.5038 15.9122 39.6784C16.0303 39.8426 16.1777 39.9781 16.3544 40.085Z" fill="white"/>
<path d="M23.1971 35.8265L18.2755 32.0028L19.2645 30.8271L19.8871 31.2069C19.8297 30.9447 19.8248 30.6935 19.8723 30.4534C19.9187 30.2025 19.9962 29.9758 20.1048 29.7733C20.2184 29.5648 20.3357 29.3887 20.4565 29.2451C20.839 28.7904 21.2387 28.5172 21.6556 28.4255C22.0775 28.3279 22.508 28.3607 22.9473 28.5238C23.3854 28.6762 23.8161 28.9168 24.2394 29.2458L26.9571 31.3572L25.9 32.6136L23.3505 30.6328C23.2011 30.5167 23.0416 30.4126 22.872 30.3204C22.7025 30.2283 22.5278 30.1667 22.3479 30.1358C22.173 30.0989 22.0004 30.1083 21.8301 30.1639C21.6597 30.2195 21.4965 30.3401 21.3405 30.5256C21.1392 30.7649 21.0328 31.0137 21.0214 31.272C21.01 31.5303 21.0775 31.7805 21.2237 32.0228C21.37 32.265 21.5707 32.4853 21.826 32.6836L24.2541 34.5701L23.1971 35.8265Z" fill="white"/>
<path d="M31.0827 27.6806C30.5866 28.0819 30.0758 28.3292 29.5504 28.4223C29.0312 28.5105 28.525 28.4523 28.0319 28.2478C27.5336 28.0374 27.0731 27.6909 26.6503 27.2082C26.2224 26.7197 25.9461 26.2191 25.8215 25.7064C25.6917 25.1879 25.7167 24.6849 25.8967 24.1974C26.0828 23.7049 26.43 23.2531 26.9384 22.8419C27.3304 22.5248 27.7388 22.31 28.1636 22.1977C28.5884 22.0853 29.0036 22.0814 29.409 22.1858C29.8206 22.2853 30.2041 22.5081 30.5596 22.8541L29.3009 23.8723C29.0653 23.7109 28.8266 23.6475 28.5849 23.6822C28.3493 23.7119 28.1243 23.8134 27.9099 23.9868C27.6343 24.2098 27.4705 24.4529 27.4186 24.7162C27.3727 24.9745 27.4007 25.2334 27.5025 25.493C27.6105 25.7477 27.7521 25.975 27.9274 26.1752C28.1181 26.3929 28.3353 26.5692 28.579 26.704C28.8175 26.8329 29.0705 26.8947 29.338 26.8895C29.6065 26.8735 29.8724 26.7589 30.1358 26.5459C30.3563 26.3675 30.508 26.1643 30.5909 25.9364C30.6686 25.7025 30.6417 25.4628 30.5103 25.2171L31.7965 24.1766C32.101 24.584 32.26 24.9985 32.2735 25.42C32.2869 25.8416 32.188 26.2484 31.9768 26.6405C31.7666 27.0218 31.4686 27.3685 31.0827 27.6806Z" fill="white"/>
<path d="M37.8892 23.0357C37.3094 23.3476 36.7523 23.5018 36.2181 23.4983C35.6839 23.4947 35.1911 23.3498 34.7399 23.0635C34.2848 22.7705 33.8988 22.3521 33.582 21.8083C33.2613 21.2578 33.0935 20.7177 33.0784 20.1879C33.0595 19.6514 33.1842 19.1567 33.4525 18.7037C33.7278 18.247 34.1449 17.8683 34.7037 17.5677C35.1229 17.3421 35.5287 17.212 35.9213 17.1771C36.3209 17.1385 36.6994 17.1818 37.0567 17.3069C37.4211 17.4283 37.7495 17.622 38.042 17.8878C38.3376 18.1432 38.5894 18.4574 38.7976 18.8304C38.8523 18.9244 38.9016 19.0169 38.9455 19.108C38.9893 19.199 39.0262 19.2938 39.0561 19.3923L35.2732 21.4275C35.4115 21.6176 35.5785 21.7703 35.774 21.8855C35.9696 22.0007 36.1841 22.0617 36.4174 22.0684C36.6538 22.0647 36.9047 21.9914 37.1701 21.8486C37.3448 21.7547 37.4957 21.6514 37.6228 21.5389C37.7461 21.4197 37.8366 21.2917 37.8945 21.1547C37.9523 21.0178 37.9709 20.8843 37.9503 20.7544L39.3963 19.9764C39.5363 20.4213 39.5548 20.839 39.4519 21.2294C39.356 21.6161 39.1687 21.9638 38.8898 22.2725C38.6069 22.5746 38.2734 22.829 37.8892 23.0357ZM34.7298 20.4237L37.1294 19.1327C37.0168 18.9552 36.8702 18.8137 36.6894 18.7081C36.5117 18.5921 36.3081 18.5341 36.0787 18.5341C35.8524 18.5236 35.6065 18.5897 35.3411 18.7325C35.0756 18.8754 34.8814 19.046 34.7584 19.2444C34.6424 19.4391 34.586 19.6414 34.589 19.8514C34.5951 20.0509 34.642 20.2417 34.7298 20.4237Z" fill="white"/>
<path d="M47.7609 14.1963L46.4579 13.6609L47.0521 12.6611L45.8515 12.6954L45.9643 11.3421L47.1436 11.5734L46.7311 10.493L48.1222 10.1785L48.2542 11.3224L49.1908 10.6127L49.9313 11.7732L48.8407 12.2568L49.8247 12.8999L48.9066 13.9373L48.1062 13.0868L47.7609 14.1963Z" fill="white"/>
<circle cx="60" cy="60" r="35" fill="white"/>
</svg>
